<?xml version="1.0" standalone="no"?>
<!DOCTYPE svg PUBLIC "-//W3C//DTD SVG 1.1//EN" "http://www.w3.org/Graphics/SVG/1.1/DTD/svg11.dtd" >
<svg>
<metadata>
Created by FontForge 20090914 at Thu Aug 29 15:28:35 2013
 By www-data
Copyright (c) 2008 by Jos Buivenga. All rights reserved.
</metadata>
<defs>
<font id="MuseoSans-500" horiz-adv-x="1681" >
  <font-face 
    font-family="Museo Sans"
    font-weight="400"
    font-stretch="normal"
    units-per-em="2048"
    panose-1="2 0 0 0 0 0 0 0 0 0"
    ascent="1536"
    descent="-512"
    x-height="1036"
    cap-height="1446"
    bbox="-113 -430 1962 1827"
    underline-thickness="102"
    underline-position="-102"
    unicode-range="U+0020-U+FB04"
  />
<missing-glyph horiz-adv-x="1044" 
d="M10 0v1434h1024v-1434h-1024zM522 809l348 522h-696zM584 717l348 -522v1044zM113 195l348 522l-348 522v-1044zM174 102h696l-348 523z" />
    <glyph glyph-name=".notdef" horiz-adv-x="1044" 
d="M10 0v1434h1024v-1434h-1024zM522 809l348 522h-696zM584 717l348 -522v1044zM113 195l348 522l-348 522v-1044zM174 102h696l-348 523z" />
    <glyph glyph-name="space" unicode=" " horiz-adv-x="526" 
 />
    <glyph glyph-name="exclam" unicode="!" horiz-adv-x="651" 
d="M238 397l-15 1049h205l-12 -1049h-178zM225 0v199h203v-199h-203z" />
    <glyph glyph-name="quotedbl" unicode="&#x22;" horiz-adv-x="700" 
d="M416 1085v385h155v-385h-155zM129 1085v385h156v-385h-156z" />
    <glyph glyph-name="numbersign" unicode="#" horiz-adv-x="1470" 
d="M289 0l67 391h-266l25 152h268l59 344h-264l25 149h266l72 410h166l-72 -410h317l72 410h166l-72 -410h268l-26 -149h-266l-62 -344h266l-26 -152h-264l-70 -391h-166l68 391h-318l-67 -391h-166zM549 543h317l62 344h-318z" />
    <glyph glyph-name="dollar" unicode="$" horiz-adv-x="1159" 
d="M111 166l114.002 152.998c4 -4 9.83301 -9.33301 17.5 -16s24.5 -19.167 50.5 -37.5s52.333 -34.333 79 -48s60.5 -26 101.5 -37s81.167 -16.5 120.5 -16.5c70.667 0 130 19.167 178 57.5s72 90.166 72 155.499c0 54.667 -24.333 102.167 -73 142.5
s-107.834 75.166 -177.501 104.499s-139.167 61 -208.5 95s-128.333 80.333 -177 139s-73 128.334 -73 209.001c0 100 35.167 187.167 105.5 261.5s162.166 119.5 275.499 135.5v193h146v-191c68 -5.33301 131 -19.5 189 -42.5s99.333 -45.5 124 -67.5l37 -31l-92 -168
c-9.33301 9.33301 -23.333 20.833 -42 34.5s-55.667 32.167 -111 55.5s-110.333 35 -165 35c-76.667 0 -139.5 -20.5 -188.5 -61.5s-73.5 -90.833 -73.5 -149.5c0 -38 13 -72.333 39 -103s59.833 -57 101.5 -79s87.667 -43.167 138 -63.5s100.833 -43.166 151.5 -68.499
s96.834 -53.666 138.501 -84.999s75.5 -71.666 101.5 -120.999s39 -105.333 39 -168c0 -105.333 -34.833 -195.5 -104.5 -270.5s-163.834 -119.167 -282.501 -132.5v-189h-146v189c-154 15.333 -283.667 72 -389 170z" />
    <glyph glyph-name="percent" unicode="%" horiz-adv-x="1558" 
d="M408 864c-86 0 -159.167 29.3311 -219.5 87.998s-90.5 130.334 -90.5 215.001c0 83.333 30.167 154.666 90.5 213.999s133.5 89 219.5 89s159.333 -29.667 220 -89s91 -130.666 91 -213.999s-30.333 -154.666 -91 -213.999s-134 -89 -220 -89zM129 -0.00195312l1106 1446
h192l-1105 -1446h-193zM407.5 1016c42.333 0 78.166 14.333 107.499 43s44 64.667 44 108c0 42 -14.667 78.167 -44 108.5s-65.166 45.5 -107.499 45.5s-78.166 -15 -107.499 -45s-44 -66.333 -44 -109c0 -44 14.667 -80.167 44 -108.5s65.166 -42.5 107.499 -42.5z
M840 278.998c0 83.333 30.333 154.667 91 214s134 89 220 89c84.667 0 157.667 -29.833 219 -89.5s92 -131 92 -214s-30.667 -154.333 -92 -214s-134.333 -89.5 -219 -89.5c-87.333 0 -161 29.5 -221 88.5s-90 130.833 -90 215.5zM999 278.999
c0 -44 14.332 -80.332 42.999 -108.999s65 -43 109 -43c42 0 77.833 14.667 107.5 44s44.5 65.166 44.5 107.499s-14.833 78.5 -44.5 108.5s-65.667 45 -108 45s-78.166 -15 -107.499 -45s-44 -66 -44 -108z" />
    <glyph glyph-name="ampersand" unicode="&#x26;" horiz-adv-x="1400" 
d="M111 406c0 82 22.833 157.669 68.5 227.002s107.5 117 185.5 143v4c-5.33301 1.33301 -12.166 4.16602 -20.499 8.49902s-23.5 14.666 -45.5 30.999s-41.5 35.333 -58.5 57s-32.333 52.334 -46 92.001s-20.5 82.834 -20.5 129.501c0 117.333 41.333 208.666 124 273.999
s189.334 98 320.001 98c23.333 0 49.666 -2 78.999 -6s53 -7.33301 71 -10l27 -6l-52 -162c-39.333 8 -75.333 12 -108 12c-74 0 -135.167 -19.667 -183.5 -59s-72.5 -93.333 -72.5 -162c0 -26 3.66699 -50.833 11 -74.5s20 -47.834 38 -72.501s45.333 -44.167 82 -58.5
s81.667 -21.5 135 -21.5h268v197h199v-197h193v-176h-193v-193c0 -160 -44.333 -284.333 -133 -373s-211 -133 -367 -133c-148.667 0 -269.334 41.167 -362.001 123.5s-139 184.833 -139 307.5zM317 416.002c0 -70.667 27.333 -130.667 82 -180s125.667 -74 213 -74
c95.333 0 169.333 27 222 81s79 136 79 246v185h-276c-102.667 0 -181.667 -22.5 -237 -67.5s-83 -108.5 -83 -190.5z" />
    <glyph glyph-name="quotesingle" unicode="'" horiz-adv-x="415" 
d="M129 1085v385h158v-385h-158z" />
    <glyph glyph-name="parenleft" unicode="(" horiz-adv-x="618" 
d="M387 -195c-158.667 263.333 -237.667 560.332 -237 890.999c0 286.667 79 556.334 237 809.001h174c-154 -258 -231 -528.333 -231 -811c0 -312.667 77 -609 231 -889h-174z" />
    <glyph glyph-name="parenright" unicode=")" horiz-adv-x="618" 
d="M231 -195l-174 0.000976562c154 280 231.333 576.333 232 889c0 282.667 -77.333 553 -232 811h174c158.667 -252.667 238 -522.334 238 -809.001c0 -330.667 -79.333 -627.667 -238 -891z" />
    <glyph glyph-name="asterisk" unicode="*" horiz-adv-x="956" 
d="M317 674l-147 106l182 226v4l-278 75l53 172l272 -102l-14 291h186l-16 -291l274 102l56 -172l-281 -75v-4l180 -226l-145 -106l-158 241h-4z" />
    <glyph glyph-name="plus" unicode="+" horiz-adv-x="1398" 
d="M158 504v160h458v503h168v-503h457v-160h-457v-504h-168v504h-458z" />
    <glyph glyph-name="comma" unicode="," horiz-adv-x="522" 
d="M55 -207l127 422h203l-172 -422h-158z" />
    <glyph glyph-name="hyphen" unicode="-" horiz-adv-x="966" 
d="M184 496v176h598v-176h-598z" />
    <glyph glyph-name="period" unicode="." horiz-adv-x="520" 
d="M156 0v211h209v-211h-209z" />
    <glyph glyph-name="slash" unicode="/" horiz-adv-x="827" 
d="M74 -86l520 1610h176l-520 -1610h-176z" />
    <glyph glyph-name="zero" unicode="0" horiz-adv-x="1280" 
d="M639 -25c-340 0 -510 250 -510 750c0 496.667 170 745 510 745c341.333 0 512 -248.333 512 -745c0 -500 -170.667 -750 -512 -750zM639 162c203.333 0 305 187.667 305 563c0 372.667 -101.667 559 -305 559c-202 0 -303 -186.333 -303 -559
c0 -375.333 101 -563 303 -563z" />
    <glyph glyph-name="one" unicode="1" horiz-adv-x="1001" 
d="M115 0v176h319v934l2 90h-4c-10.667 -22 -34 -50 -70 -84l-135 -133l-123 127l347 336h180v-1270h315v-176h-831z" />
    <glyph glyph-name="two" unicode="2" horiz-adv-x="1171" 
d="M123 0c-6.66699 44 -10.0039 80.999 -10.0039 110.999c0 80.667 17.333 155.334 52 224.001s78.334 125.5 131.001 170.5s109.667 90.167 171 135.5l171 122c52.667 36 96.334 78.333 131.001 127s52 98.667 52 150c0 70.667 -24.167 128.334 -72.5 173.001
s-110.833 67 -187.5 67c-35.333 0 -69.666 -6.5 -102.999 -19.5s-61 -28.333 -83 -46s-41.5 -35.334 -58.5 -53.001s-29.5 -33.5 -37.5 -47.5l-11 -18l-149 100c4 6.66699 9.33301 16.5 16 29.5s23.334 35.167 50.001 66.5s56.167 59 88.5 83s75.333 45.833 129 65.5
s111.167 29.5 172.5 29.5c134 0 243.667 -38.167 329 -114.5s128 -176.5 128 -300.5c0 -64 -12.667 -124 -38 -180s-58.333 -104.167 -99 -144.5s-85.667 -79 -135 -116s-98.5 -71.833 -147.5 -104.5s-94 -65.5 -135 -98.5s-74.5 -69.5 -100.5 -109.5s-39 -82 -39 -126h717
v-176h-932z" />
    <glyph glyph-name="three" unicode="3" horiz-adv-x="1161" 
d="M82 172l111 153.998c10.667 -12 25.5 -26.667 44.5 -44s59.333 -40.666 121 -69.999s123.167 -44 184.5 -44c82 0 151.667 24.833 209 74.5s86 112.834 86 189.501c0 84.667 -32.167 150.167 -96.5 196.5s-144.166 69.5 -239.499 69.5h-101l-47 109l316 371l90 94v4
c-28.667 -4 -69.667 -6 -123 -6h-490v176h865v-129l-394 -453c112 -12 210.667 -53.5 296 -124.5s128 -170.667 128 -299s-45.667 -238 -137 -329s-209.333 -136.5 -354 -136.5c-54.667 0 -108.334 6.83301 -161.001 20.5s-96.667 30.167 -132 49.5s-67 38.5 -95 57.5
s-48.333 35.5 -61 49.5z" />
    <glyph glyph-name="four" unicode="4" horiz-adv-x="1241" 
d="M63 387v127l668 932h232v-887h196v-172h-196v-387h-199v387h-701zM287 559h477v526l8 144h-4c-22 -45.333 -46 -85 -72 -119l-409 -547v-4z" />
    <glyph glyph-name="five" unicode="5" horiz-adv-x="1153" 
d="M98 176l113.001 148.001c2.66699 -4 7 -9.5 13 -16.5s19.333 -19.667 40 -38s42.167 -34.333 64.5 -48s51.666 -26 87.999 -37s73.5 -16.5 111.5 -16.5c87.333 0 162.166 27.333 224.499 82s93.5 125 93.5 211s-31.5 157 -94.5 213s-141.5 84 -235.5 84
c-42 0 -83.167 -6.16699 -123.5 -18.5s-70.166 -23.833 -89.499 -34.5l-31 -19l-116 43l71 717h729v-176h-553l-34 -305l-11 -76h4c53.333 30 115.666 45 186.999 45c148.667 0 269.834 -45.333 363.501 -136s140.5 -202.334 140.5 -335.001
c0 -139.333 -48.833 -255.5 -146.5 -348.5s-219.5 -139.5 -365.5 -139.5c-165.333 0 -303.333 56 -414 168z" />
    <glyph glyph-name="six" unicode="6" horiz-adv-x="1226" 
d="M662 -25c-157.333 0 -286.832 62.832 -388.499 188.499s-152.5 290.167 -152.5 493.5c0 95.333 13.333 189.833 40 283.5s65.5 180.834 116.5 261.501s119.167 145.5 204.5 194.5s182 73.5 290 73.5c50.667 0 99.167 -4.66699 145.5 -14s80.5 -19.666 102.5 -30.999
l33 -14l-66 -174c-61.333 31.333 -130.333 47 -207 47c-124 0 -222.833 -47.5 -296.5 -142.5s-119.5 -209.167 -137.5 -342.5h4c30 40.667 74.667 73.667 134 99s121.333 38 186 38c135.333 0 245.166 -45.333 329.499 -136s126.5 -204.334 126.5 -341.001
c0 -142 -43.5 -258.167 -130.5 -348.5s-198.167 -135.5 -333.5 -135.5zM659.001 161.999c80.667 0 145.333 28 194 84s73 127 73 213c0 90 -27 163.333 -81 220s-126 85 -216 85c-80.667 0 -150 -20.5 -208 -61.5s-87 -88.167 -87 -141.5c0 -98 32 -189 96 -273
s140.333 -126 229 -126z" />
    <glyph glyph-name="seven" unicode="7" horiz-adv-x="1083" 
d="M176 0l563 1139c12 24.667 25 47.834 39 69.501s25 37.834 33 48.501l12 15v4c-22 -4 -57.333 -6 -106 -6h-645v176h966v-139l-653 -1307h-209z" />
    <glyph glyph-name="eight" unicode="8" horiz-adv-x="1243" 
d="M117 418c0 50.667 9.5 99.502 28.5 146.502s43.833 87.167 74.5 120.5s55.334 58.166 74.001 74.499s36.667 30.833 54 43.5c-108 78 -162 174.333 -162 289c0 104 39 193 117 267s189.333 111 334 111c135.333 0 245 -35 329 -105s126 -164 126 -282
c0 -124 -57.333 -249.333 -172 -376c131.333 -80.667 196.666 -183.334 195.999 -308.001c0 -116 -46 -215.667 -138 -299s-211.167 -125 -357.5 -125s-266.833 41.333 -361.5 124s-142 189 -142 319zM907 406.002c0 24.667 -6.16992 48.1689 -18.5029 70.502
s-26.666 41.333 -42.999 57s-40.166 32.667 -71.499 51s-59 33.166 -83 44.499l-97 44l-96 44c-116 -80.667 -174 -176.334 -174 -287.001c0 -80.667 29.333 -146.167 88 -196.5s128.334 -75.5 209.001 -75.5c78 0 145.167 23.167 201.5 69.5s84.5 105.833 84.5 178.5z
M386.997 1087c0 -19.333 3.50098 -37.668 10.501 -55.001s14.167 -32.833 21.5 -46.5s20.5 -28 39.5 -43s34.667 -26.667 47 -35s32.166 -19.333 59.499 -33s47.833 -23.5 61.5 -29.5s37.334 -15.833 71.001 -29.5s56.5 -23.5 68.5 -29.5c84.667 84.667 127 179.667 127 285
c0 65.333 -23.833 117.833 -71.5 157.5s-109.834 59.5 -186.501 59.5c-78 0 -138.833 -19.167 -182.5 -57.5s-65.5 -86.166 -65.5 -143.499z" />
    <glyph glyph-name="nine" unicode="9" horiz-adv-x="1226" 
d="M455 -25c-50.667 0 -99.499 4.83203 -146.499 14.499s-81.5 19.834 -103.5 30.501l-31 15l66 176c61.333 -32.667 130 -49 206 -49c124 0 223 47.333 297 142s120 209 138 343h-4c-28.667 -40.667 -73.167 -73.334 -133.5 -98.001s-122.5 -37 -186.5 -37
c-135.333 0 -245.333 45 -330 135s-127 203.333 -127 340c0 142 43.667 258 131 348s198.666 135 333.999 135c155.333 0 284.333 -62.667 387 -188s154 -290 154 -494c0 -95.333 -13.333 -189.666 -40 -282.999s-65.667 -180.333 -117 -261s-119.5 -145.667 -204.5 -195
s-181.5 -74 -289.5 -74zM598.001 681.999c80.667 0 150.001 20.833 208.001 62.5s87 88.5 87 140.5c0 98 -32.167 189 -96.5 273s-140.833 126 -229.5 126c-82 0 -146.833 -28 -194.5 -84s-71.5 -127 -71.5 -213c0 -90 26.667 -163.333 80 -220s125.666 -85 216.999 -85z
" />
    <glyph glyph-name="colon" unicode=":" horiz-adv-x="598" 
d="M195 825v211h208v-211h-208zM195 0v211h208v-211h-208z" />
    <glyph glyph-name="semicolon" unicode=";" horiz-adv-x="600" 
d="M96 -207l109 422h205l-154 -422h-160zM207 825v211h209v-211h-209z" />
    <glyph glyph-name="less" unicode="&#x3c;" horiz-adv-x="1142" 
d="M68 516v135l954 426v-182l-733 -309v-4l733 -310v-182z" />
    <glyph glyph-name="equal" unicode="=" horiz-adv-x="1370" 
d="M197 696v160h977v-160h-977zM197 309v160h977v-160h-977z" />
    <glyph glyph-name="greater" unicode="&#x3e;" horiz-adv-x="1142" 
d="M121 90v182l731 310v4l-731 309v182l954 -426v-135z" />
    <glyph glyph-name="question" unicode="?" horiz-adv-x="1001" 
d="M295 397l-0.000976562 96.998c0 57.333 12 109.5 36 156.5s53 86.833 87 119.5l102 94c34 30 63 63.833 87 101.5s36 77.5 36 119.5c0 57.333 -22.167 105.5 -66.5 144.5s-99.833 58.5 -166.5 58.5c-38 0 -76.5 -7.16699 -115.5 -21.5s-68.833 -28.166 -89.5 -41.499
l-29 -23l-110 141c9.33301 9.33301 23.5 21.333 42.5 36s60 34.334 123 59.001s127.167 37 192.5 37c118.667 0 219.667 -34.833 303 -104.5s125 -159.834 125 -270.501c0 -62.667 -12.333 -119 -37 -169s-54.667 -91.667 -90 -125s-71.166 -65.333 -107.499 -96
s-66.833 -65.167 -91.5 -103.5s-37 -80.166 -37 -125.499v-84h-194zM290.999 -0.00195312v199h203v-199h-203z" />
    <glyph glyph-name="at" unicode="@" 
d="M121 493.5c0 211.667 72.332 390.833 216.999 537.5s321.334 220 530.001 220c184 0 318.833 -39.167 404.5 -117.5s128.5 -177.5 128.5 -297.5v-580h147v-150h-559c-124 0 -225.667 38 -305 114s-119 167.333 -119 274c0 105.333 39.333 195.5 118 270.5
s180.667 112.5 306 112.5h221c-2.66699 61.333 -33 111.666 -91 150.999s-138 59 -240 59c-157.333 0 -290 -58.333 -398 -175s-162 -256 -162 -418c0 -165.333 54.333 -304.666 163 -417.999s248.334 -170 419.001 -170v-162c-226.667 0 -413.334 72 -560.001 216
s-220 321.833 -220 533.5zM765.999 495.999c0 -66.667 22.5 -123.333 67.5 -170s101.833 -70 170.5 -70h206v483h-202c-70.667 0 -128.667 -23.5 -174 -70.5s-68 -104.5 -68 -172.5z" />
    <glyph glyph-name="A" unicode="A" horiz-adv-x="1286" 
d="M1059 0l-146 416h-544l-144 -416h-209l521 1446h213l520 -1446h-211zM645 1247l-4 -0.000976562c-22 -87.333 -41 -155.666 -57 -204.999l-162 -458h438l-160 458z" />
    <glyph glyph-name="B" unicode="B" horiz-adv-x="1298" 
d="M197 0l-0.000976562 1446h505c124 0 225 -32.833 303 -98.5s117 -155.834 117 -270.501c0 -69.333 -16 -131.333 -48 -186s-76 -96.334 -132 -125.001v-4c74 -22 132.167 -65 174.5 -129s63.5 -137.667 63.5 -221c0 -131.333 -44.167 -232.833 -132.5 -304.5
s-199.166 -107.5 -332.499 -107.5h-518zM398.999 838.002h303c64 0 115.5 20.5 154.5 61.5s58.5 93.5 58.5 157.5s-19 115.5 -57 154.5s-91.333 58.5 -160 58.5h-299v-432zM398.999 176.002l326 0.000976562c76.667 0 137.167 22.167 181.5 66.5s66.5 104.166 66.5 179.499
c0 74 -22.833 133.833 -68.5 179.5s-106.167 68.5 -181.5 68.5h-324v-494z" />
    <glyph glyph-name="C" unicode="C" horiz-adv-x="1478" 
d="M98 731c0 210 69.9971 385.669 209.997 527.002s315.333 212 526 212c65.333 0 128 -6.33301 188 -19s109.5 -28.334 148.5 -47.001s73.5 -37.5 103.5 -56.5s51.667 -35.5 65 -49.5l21 -18l-100 -152c-12 12 -29.833 26.667 -53.5 44s-72 40.666 -145 69.999
s-146.167 44 -219.5 44c-158.667 0 -287.5 -52.833 -386.5 -158.5s-148.5 -237.167 -148.5 -394.5c0 -158.667 50.167 -293.5 150.5 -404.5s229.166 -166.5 386.499 -166.5c80.667 0 158.167 15.667 232.5 47s128.5 62.666 162.5 93.999l51 47l109 -145
c-5.33301 -6.66699 -13.166 -15.167 -23.499 -25.5s-33.666 -28.5 -69.999 -54.5s-74.666 -49.167 -114.999 -69.5s-92.166 -38.833 -155.499 -55.5s-129 -25 -197 -25c-214.667 0 -391.667 72.333 -531 217s-209 324.334 -209 539.001z" />
    <glyph glyph-name="D" unicode="D" horiz-adv-x="1515" 
d="M197 0v1446h479c224 0 402.167 -63.833 534.5 -191.5s198.5 -304.167 198.5 -529.5c0 -226.667 -66.167 -404.167 -198.5 -532.5s-310.5 -192.5 -534.5 -192.5h-479zM399 176l263 -0.000976562c165.333 0 296.333 47.833 393 143.5s145 230.834 145 405.501
c0 173.333 -48.5 307.5 -145.5 402.5s-227.833 142.5 -392.5 142.5h-263v-1094z" />
    <glyph glyph-name="E" unicode="E" horiz-adv-x="1173" 
d="M197 0v1446h839v-176h-637v-453h519v-176h-519v-465h672v-176h-874z" />
    <glyph glyph-name="F" unicode="F" horiz-adv-x="1067" 
d="M197 0v1446h796v-176h-594v-475h506v-177h-506v-618h-202z" />
    <glyph glyph-name="G" unicode="G" horiz-adv-x="1556" 
d="M100 725c0 210 70.333 386.668 211 530.001s316.334 215 527.001 215c64 0 126 -6 186 -18s109.833 -26.333 149.5 -43s74.5 -33.5 104.5 -50.5s51.667 -31.5 65 -43.5l21 -19l-102 -151c-12 10.667 -29.333 23.834 -52 39.501s-69.5 36.5 -140.5 62.5
s-142.833 39 -215.5 39c-165.333 0 -297.5 -52.833 -396.5 -158.5s-148.5 -238.5 -148.5 -398.5c0 -166.667 50.5 -302.834 151.5 -408.501s228.167 -158.5 381.5 -158.5c74 0 145 15 213 45s117.667 60 149 90l47 45v209h-235v176h420v-727h-179v90l3 62h-5l-18 -19
c-8 -8 -26.333 -22.333 -55 -43s-58.834 -38.5 -90.501 -53.5s-73 -29 -124 -42s-103.167 -19.5 -156.5 -19.5c-198 0 -366 70.667 -504 212s-207 320.666 -207 537.999z" />
    <glyph glyph-name="H" unicode="H" horiz-adv-x="1548" 
d="M197 0v1446h202v-635h750v635h203v-1446h-203v635h-750v-635h-202z" />
    <glyph glyph-name="I" unicode="I" horiz-adv-x="595" 
d="M197 0v1446h202v-1446h-202z" />
    <glyph glyph-name="J" unicode="J" horiz-adv-x="1099" 
d="M61 416l0.00195312 70.998h201v-61c0 -91.333 22.167 -158.166 66.5 -200.499s98.666 -63.5 162.999 -63.5s118 20.5 161 61.5s64.5 105.833 64.5 194.5v852h-365v176h568v-1030c0 -146 -42.333 -256 -127 -330s-185.834 -111 -303.501 -111s-218.5 37.333 -302.5 112
s-126 184.334 -126 329.001z" />
    <glyph glyph-name="K" unicode="K" horiz-adv-x="1275" 
d="M197 0v1446h202v-608h215l365 608h223l-420 -686v-4l447 -756h-230l-385 664h-215v-664h-202z" />
    <glyph glyph-name="L" unicode="L" horiz-adv-x="1083" 
d="M197 0v1446h202v-1270h648v-176h-850z" />
    <glyph glyph-name="M" unicode="M" horiz-adv-x="1773" 
d="M152 0l116.001 1446h213l332 -782l72 -195h4c26 76.667 50 141.667 72 195l331 782h213l117 -1446h-201l-71 911l-2 213h-5c-28.667 -88.667 -54.334 -159.667 -77.001 -213l-289 -651h-180l-287 651c-22 52 -48 124.333 -78 217h-4c0.666992 -21.333 1 -42 1 -62
c0 -59.333 -1.66699 -111 -5 -155l-70 -911h-202z" />
    <glyph glyph-name="N" unicode="N" horiz-adv-x="1550" 
d="M197 0l-0.000976562 1446h200l643 -940c16.667 -23.333 35 -52.333 55 -87l48 -87l18 -35h4c-9.33301 86 -14 155.667 -14 209v940h203v-1446h-199l-645 938c-35.333 53.333 -75.666 123.666 -120.999 210.999h-4c9.33301 -86 14 -156.333 14 -211v-938h-202z" />
    <glyph glyph-name="O" unicode="O" 
d="M98 733c0 207.333 71.667 382 215 524s319.5 213 528.5 213s384.833 -71 527.5 -213s214 -316.667 214 -524c0 -212.667 -71.333 -392.167 -214 -538.5s-318.5 -219.5 -527.5 -219.5s-385.167 73.167 -528.5 219.5s-215 325.833 -215 538.5zM307 733
c0 -161.333 51.833 -296.833 155.5 -406.5s230 -164.5 379 -164.5s275 55 378 165s154.5 245.333 154.5 406c0 157.333 -51.5 288.833 -154.5 394.5s-229 158.5 -378 158.5s-275.333 -52.833 -379 -158.5s-155.5 -237.167 -155.5 -394.5z" />
    <glyph glyph-name="P" unicode="P" horiz-adv-x="1243" 
d="M197 0v1446h528c134 0 243.333 -41.333 328 -124s127 -192.334 127 -329.001s-42.667 -247.167 -128 -331.5s-194.333 -126.5 -327 -126.5h-326v-535h-202zM399 711.001l293 0.000976562c87.333 0 156 25.167 206 75.5s75 119.166 75 206.499c0 86 -25 153.667 -75 203
s-118 74 -204 74h-295v-559z" />
    <glyph glyph-name="Q" unicode="Q" horiz-adv-x="1705" 
d="M100 731c0 208.667 71.333 384.001 214 526.001s318.667 213 528 213c210 0 386.333 -71 529 -213s214 -317.333 214 -526c0 -180 -56.667 -339 -170 -477l172 -164l-119 -127l-168 168c-130 -104 -282.667 -156 -458 -156c-208.667 0 -384.5 73.167 -527.5 219.5
s-214.5 325.166 -214.5 536.499zM309 731.001c0 -161.333 51.166 -296.5 153.499 -405.5s228.833 -163.5 379.5 -163.5c120 0 224.333 35.333 313 106l-170 166l119 127l166 -168c70.667 98 106 210.667 106 338c0 158.667 -51.167 290.834 -153.5 396.501
s-229.166 158.5 -380.499 158.5c-150 0 -276.333 -52.833 -379 -158.5s-154 -237.834 -154 -396.501z" />
    <glyph glyph-name="R" unicode="R" horiz-adv-x="1312" 
d="M197 0v1446h442c121.333 0 211.333 -11 270 -33c75.333 -27.333 134.833 -75.833 178.5 -145.5s65.5 -151.5 65.5 -245.5c0 -92.667 -23.5 -174.5 -70.5 -245.5s-110.167 -119.5 -189.5 -145.5v-4c10.667 -12 25 -34 43 -66l307 -561h-229l-305 575h-310v-575h-202z
M399 752h291c79.333 0 141.833 23.5 187.5 70.5s68.5 110.833 68.5 191.5c0 106.667 -38.333 181 -115 223c-40.667 22 -106.667 33 -198 33h-234v-518z" />
    <glyph glyph-name="S" unicode="S" horiz-adv-x="1118" 
d="M86 166l114.997 153.003c4 -4 9.66699 -9.33301 17 -16s24 -19.167 50 -37.5s52.333 -34.333 79 -48s60.5 -26 101.5 -37s81.167 -16.5 120.5 -16.5c70.667 0 130 19.167 178 57.5s72 90.166 72 155.499c0 42 -13 79.5 -39 112.5s-59.5 61 -100.5 84
s-86.333 45.167 -136 66.5s-99.5 44.166 -149.5 68.499s-95.333 51.666 -136 81.999s-74 69 -100 116s-39 100.5 -39 160.5c0 113.333 44 208.833 132 286.5s199.667 116.5 335 116.5c79.333 0 153 -12.167 221 -36.5s116.333 -48.833 145 -73.5l43 -35l-92 -168
c-9.33301 9.33301 -23.166 20.833 -41.499 34.5s-55.166 32.167 -110.499 55.5s-110.333 35 -165 35c-75.333 0 -137.833 -20.5 -187.5 -61.5s-74.5 -90.833 -74.5 -149.5c0 -54.667 23.833 -101.167 71.5 -139.5s106 -71 175 -98s138 -57 207 -90
s127.333 -79.833 175 -140.5s71.5 -134 71.5 -220c0 -116 -41.667 -213 -125 -291s-194.666 -117 -333.999 -117c-57.333 0 -113 6.5 -167 19.5s-99 28.833 -135 47.5s-68 37.5 -96 56.5s-48.333 35.167 -61 48.5z" />
    <glyph glyph-name="T" unicode="T" horiz-adv-x="1214" 
d="M506 0v1270h-496v176h1194v-176h-495v-1270h-203z" />
    <glyph glyph-name="U" unicode="U" horiz-adv-x="1490" 
d="M176 512l0.000976562 934h203v-934c0 -109.333 32.667 -195 98 -257s154 -93 266 -93c113.333 0 203.166 31 269.499 93s99.5 149 99.5 261v930h203v-934c0 -160 -52.667 -289.5 -158 -388.5s-242.5 -148.5 -411.5 -148.5s-306.167 49.5 -411.5 148.5
s-158 228.5 -158 388.5z" />
    <glyph glyph-name="V" unicode="V" horiz-adv-x="1294" 
d="M547 0l-535 1446h219l359 -1022l55 -199h4c19.333 80.667 38 147 56 199l362 1022h215l-532 -1446h-203z" />
    <glyph glyph-name="W" unicode="W" horiz-adv-x="1941" 
d="M877 1446l180 0.000976562l282 -1061l31 -154h4c4 50.667 13 102 27 154l266 1061h209l-379 -1446h-235l-250 938c-16.667 61.333 -31 129.666 -43 204.999h-4c-12 -75.333 -26.333 -143.666 -43 -204.999l-250 -938h-236l-368 1446h208l256 -1061
c12 -52 21 -103.333 27 -154h4c6.66699 49.333 17 100.666 31 153.999z" />
    <glyph glyph-name="X" unicode="X" horiz-adv-x="1253" 
d="M45 0l457.001 745l-428 701h233l228 -391l92 -172h4c27.333 61.333 56.666 118.666 87.999 171.999l227 391h234l-428 -701l456 -745h-229l-262 444l-92 166h-4c-26 -57.333 -54.667 -112.666 -86 -165.999l-263 -444h-227z" />
    <glyph glyph-name="Y" unicode="Y" horiz-adv-x="1204" 
d="M502 0v612l-486 834h230l268 -475l88 -183h4c28.667 66.667 58 127.667 88 183l264 475h230l-483 -834v-612h-203z" />
    <glyph glyph-name="Z" unicode="Z" horiz-adv-x="1243" 
d="M84 0l0.000976562 134.998l696 1004c16.667 24.667 33.5 47.834 50.5 69.501s30.167 37.834 39.5 48.501l15 15v4c-26 -4 -62.333 -6 -109 -6h-655v176h1016v-133l-697 -1006c-16.667 -23.333 -33.834 -45.833 -51.501 -67.5s-31.167 -37.167 -40.5 -46.5l-12 -17v-4
c26 2.66699 62 4 108 4h701v-176h-1061z" />
    <glyph glyph-name="bracketleft" unicode="[" horiz-adv-x="616" 
d="M207 -195v1700h338v-149h-164v-1399h164v-152h-338z" />
    <glyph glyph-name="backslash" unicode="\" horiz-adv-x="827" 
d="M578 -86l-521 1610h176l521 -1610h-176z" />
    <glyph glyph-name="bracketright" unicode="]" horiz-adv-x="618" 
d="M72 -43h166v1399h-166v149h340v-1700h-340v152z" />
    <glyph glyph-name="asciicircum" unicode="^" horiz-adv-x="1255" 
d="M141 506l410 940h129l407 -940h-178l-295 721l-292 -721h-181z" />
    <glyph glyph-name="underscore" unicode="_" horiz-adv-x="1216" 
d="M57 0h1102v-160h-1102v160z" />
    <glyph glyph-name="grave" unicode="`" horiz-adv-x="1021" 
d="M524 1546l-194 260h213l149 -260h-168z" />
    <glyph glyph-name="a" unicode="a" horiz-adv-x="1081" 
d="M72 291c0 237.333 208 355.997 624 355.997h45v19c0 151.333 -75.667 227 -227 227c-104 -1.33301 -200.333 -34.666 -289 -99.999l-82 145c10.667 9.33301 26.667 20.833 48 34.5s65.5 31.834 132.5 54.501s135.833 34 206.5 34c131.333 0 232.5 -34.833 303.5 -104.5
s106.5 -170.167 106.5 -301.5v-655h-184v98l4 82h-4l-12 -22c-4.66699 -9.33301 -16.167 -25.666 -34.5 -48.999s-38.833 -44 -61.5 -62s-54 -34.5 -94 -49.5s-83.333 -22.5 -130 -22.5c-95.333 0 -177.833 28.167 -247.5 84.5s-104.5 133.5 -104.5 231.5zM272 300.997
c0 -45.333 17.1689 -84.333 51.502 -117s82.166 -49 143.499 -49c79.333 0 145.166 34.5 197.499 103.5s78.5 144.5 78.5 226.5v33h-51c-280 0 -420 -65.667 -420 -197z" />
    <glyph glyph-name="b" unicode="b" horiz-adv-x="1228" 
d="M156 0v1446h198v-473l-4 -88h4l11.5 18c5 8 17 22.333 36 43s39.833 38.5 62.5 53.5s54 29 94 42s82.667 19.5 128 19.5c138 0 248.333 -49.833 331 -149.5s124 -230.834 124 -393.501s-44 -293.834 -132 -393.501s-201 -149.5 -339 -149.5
c-44 0 -85.167 6.16699 -123.5 18.5s-69 27.5 -92 45.5s-43.333 35.5 -61 52.5s-30.167 31.5 -37.5 43.5l-12 19h-4c2.66699 -22 4 -48 4 -78v-76h-188zM348 514.002c0 -100 25.667 -186.5 77 -259.5s123.333 -109.5 216 -109.5c84.667 0 155.667 33.167 213 99.5
s86 156.833 86 271.5c0 112 -27 201.833 -81 269.5s-124.667 101.5 -212 101.5c-84.667 0 -155.667 -31.167 -213 -93.5s-86 -155.5 -86 -279.5z" />
    <glyph glyph-name="c" unicode="c" horiz-adv-x="1120" 
d="M82 518c0 154 52.1689 283 156.502 387s237.166 156 398.499 156c76.667 0 147.334 -12.667 212.001 -38s110.667 -51 138 -77l39 -37l-94 -139c-8 8 -20 18.833 -36 32.5s-48.833 31.5 -98.5 53.5s-100.5 33 -152.5 33c-104 0 -190 -34.833 -258 -104.5
s-102 -157.834 -102 -264.501s34.5 -195.5 103.5 -266.5s156.5 -106.5 262.5 -106.5c57.333 0 112.666 11.667 165.999 35s92.333 46.666 117 69.999l37 35l80 -146l-18 -17c-7.33301 -7.33301 -24 -20.666 -50 -39.999s-54 -36.166 -84 -50.499
s-68.5 -27.666 -115.5 -39.999s-95.833 -18.5 -146.5 -18.5c-162.667 0 -295.834 51.167 -399.501 153.5s-155.5 232.166 -155.5 389.499z" />
    <glyph glyph-name="d" unicode="d" horiz-adv-x="1230" 
d="M88 518c0 164 43.667 295.494 131 394.494s200 148.5 338 148.5c45.333 0 87 -5.5 125 -16.5s68.333 -24.667 91 -41s42.5 -32.666 59.5 -48.999s28.833 -30.166 35.5 -41.499l9 -16h4c-2.66699 20.667 -4 44 -4 70v479h198v-1446h-188v98l2 70h-4
c-2.66699 -5.33301 -6.5 -12.166 -11.5 -20.499s-16.667 -23.666 -35 -45.999s-39.5 -42.166 -63.5 -59.499s-56.5 -32.833 -97.5 -46.5s-85.167 -20.5 -132.5 -20.5c-139.333 0 -250.333 49.833 -333 149.5s-124 230.834 -124 393.501zM291 517.994
c0 -112 27 -201.833 81 -269.5s124.667 -101.5 212 -101.5c84.667 0 155.667 31.167 213 93.5s86 155.5 86 279.5c0 100 -25.667 186.5 -77 259.5s-123.333 109.5 -216 109.5c-84.667 0 -155.667 -33.167 -213 -99.5s-86 -156.833 -86 -271.5z" />
    <glyph glyph-name="e" unicode="e" horiz-adv-x="1136" 
d="M84 518c0 162.667 48.8311 293.835 146.498 393.502s221.5 149.5 371.5 149.5c140.667 0 250.667 -45.833 330 -137.5s119 -207.834 119 -348.501l-7 -86h-755c5.33301 -109.333 41.833 -193.666 109.5 -252.999s149.834 -89 246.501 -89c109.333 0 209 38.333 299 115
l8 6l82 -145c-10.667 -10.667 -27 -24.334 -49 -41.001s-67.833 -38.667 -137.5 -66s-141.167 -41 -214.5 -41c-161.333 0 -293.166 51.667 -395.499 155s-153.5 232.666 -153.5 387.999zM294.998 639.001l552.998 -0.000976562c-2.66699 86 -27.667 151.5 -75 196.5
s-105.666 67.5 -174.999 67.5c-78 0 -144.667 -23.167 -200 -69.5s-89.666 -111.166 -102.999 -194.499z" />
    <glyph glyph-name="f" unicode="f" horiz-adv-x="688" 
d="M211 0l0.000976562 861.997h-129v160h129v49c0 65.333 9.5 122.333 28.5 171s42.167 86.334 69.5 113.001s60.166 47.834 98.499 63.501s72.166 25.834 101.499 30.501s59.666 7 90.999 7l76 -6v-170c-13.333 2.66699 -30.333 4 -51 4
c-23.333 0 -45.666 -2.33301 -66.999 -7s-44.166 -13.834 -68.499 -27.501s-44 -36.167 -59 -67.5s-22.5 -69.666 -22.5 -114.999v-45h245v-160h-245v-862h-197z" />
    <glyph glyph-name="g" unicode="g" horiz-adv-x="1214" 
d="M248 -188c86 -46.667 180.666 -70 283.999 -70c98 0 177.167 23.5 237.5 70.5s90.5 120.5 90.5 220.5v76l2 65h-4c-64 -108 -166.333 -162 -307 -162s-253 50.167 -337 150.5s-126 227 -126 380s40.333 277.667 121 374s191.334 144.5 332.001 144.5
c142 0 245.667 -43.667 311 -131l14 -23h4c-1.33301 9.33301 -2 20.333 -2 33v96h191v-993c0 -82 -14.667 -154.333 -44 -217s-69.333 -112.167 -120 -148.5s-106 -63.333 -166 -81s-124 -26.5 -192 -26.5c-124 0 -242.333 28.667 -355 86zM589.999 184
c80.667 0 146.501 28 197.501 84s76.5 147 76.5 273c0 232 -97.667 348 -293 348c-88.667 0 -157.834 -30.333 -207.501 -91s-74.5 -144.334 -74.5 -251.001c0 -109.333 27 -197.166 81 -263.499s127.333 -99.5 220 -99.5z" />
    <glyph glyph-name="h" unicode="h" horiz-adv-x="1234" 
d="M156 0l-0.00195312 1446h198v-531l-4 -86h4c27.333 60 74.5 113.667 141.5 161s147.5 71 241.5 71c237.333 0 356.333 -132.333 357 -397v-664h-199v618c0 83.333 -13.667 147.666 -41 192.999s-79.166 68 -155.499 68s-144.666 -24 -204.999 -72
s-101.166 -109.333 -122.499 -184c-10.667 -36.667 -16.334 -82.667 -17.001 -138v-485h-198z" />
    <glyph glyph-name="i" unicode="i" horiz-adv-x="509" 
d="M154 1243v203h200v-203h-200zM156 0v1036h198v-1036h-198z" />
    <glyph glyph-name="j" unicode="j" horiz-adv-x="507" 
d="M154 1243v203h200v-203h-200zM156 1036h196v-1071c0 -80.667 -14 -149 -42 -205s-64.5 -95.833 -109.5 -119.5s-86.667 -40 -125 -49s-77.833 -13.5 -118.5 -13.5l-70 4v170c12 -1.33301 27 -2 45 -2c23.333 0 46 2.83301 68 8.5s45.667 15.167 71 28.5
s45.833 36.5 61.5 69.5s23.5 73.167 23.5 120.5v1059z" />
    <glyph glyph-name="k" unicode="k" horiz-adv-x="1077" 
d="M156 0v1446h198v-791h146l282 381h226l-344 -456v-5l383 -575h-232l-311 487h-150v-487h-198z" />
    <glyph glyph-name="l" unicode="l" horiz-adv-x="542" 
d="M143 283l0.000976562 1163h199v-1129c0 -57.333 9.5 -96.166 28.5 -116.499s46.5 -30.5 82.5 -30.5l34 2v-176c-20.667 -2.66699 -42.334 -4 -65.001 -4c-186 0 -279 97 -279 291z" />
    <glyph glyph-name="m" unicode="m" horiz-adv-x="1871" 
d="M156 0l-0.000976562 1036h192v-137l-4 -76h4c26 64 72.5 119.667 139.5 167s139.5 71 217.5 71c172 0 275.667 -78.667 311 -236h4c30 65.333 78.833 121 146.5 167s141.834 69 222.501 69c228 0 342 -132.333 342 -397v-664h-199v621c0 83.333 -12.667 147.5 -38 192.5
s-74 67.5 -146 67.5c-69.333 0 -130.5 -25.333 -183.5 -76s-88.833 -113.667 -107.5 -189c-9.33301 -39.333 -14.333 -87 -15 -143v-473h-198v621c0 82 -12 145.833 -36 191.5s-72.167 68.5 -144.5 68.5s-134.833 -26 -187.5 -78s-89 -117 -109 -195
c-8 -32.667 -12.333 -77.667 -13 -135v-473h-198z" />
    <glyph glyph-name="n" unicode="n" horiz-adv-x="1234" 
d="M156 0l-0.000976562 1036h192v-137l-4 -76h4c27.333 58.667 73.833 113 139.5 163s148.834 75 249.501 75c237.333 0 356.333 -132.333 357 -397v-664h-199v618c0 83.333 -13.667 147.666 -41 192.999s-79.333 68 -156 68c-78 0 -146.667 -23.667 -206 -71
s-99.666 -108.333 -120.999 -183c-10.667 -36.667 -16.334 -83.334 -17.001 -140.001v-485h-198z" />
    <glyph glyph-name="o" unicode="o" horiz-adv-x="1277" 
d="M80 520.5c0 155.667 53.833 284.667 161.5 387s240 153.5 397 153.5s289.5 -51.167 397.5 -153.5s162 -231.333 162 -387s-54.333 -285.5 -163 -389.5s-240.667 -156 -396 -156s-287.333 52 -396 156s-163 233.833 -163 389.5zM283 520
c0 -106.667 34.833 -195.5 104.5 -266.5s153.5 -106.5 251.5 -106.5c100 0 184.333 35.167 253 105.5s103 159.5 103 267.5c0 106.667 -34.5 194.834 -103.5 264.501s-153.167 104.5 -252.5 104.5c-98 0 -181.833 -34.833 -251.5 -104.5s-104.5 -157.834 -104.5 -264.501z
" />
    <glyph glyph-name="p" unicode="p" horiz-adv-x="1228" 
d="M156 -410l-0.00195312 1446h182v-88l-4 -76h4c2.66699 5.33301 6.33398 12.166 11.001 20.499s17 23.5 37 45.5s41.833 41.167 65.5 57.5s56.334 31.333 98.001 45s87.167 20.5 136.5 20.5c138 0 248.333 -49.833 331 -149.5s124 -230.834 124 -393.501
s-44 -293.834 -132 -393.501s-200.333 -149.5 -337 -149.5c-42 0 -81.833 5.83301 -119.5 17.5s-68.167 26 -91.5 43s-43.5 33.833 -60.5 50.5s-28.833 30.334 -35.5 41.001l-11 18h-4c2.66699 -24.667 4 -54.667 4 -90v-465h-198zM347.998 514.002
c0 -100 26.333 -186.5 79 -259.5s124 -109.5 214 -109.5c84.667 0 155.667 33.167 213 99.5s86 156.833 86 271.5c0 112 -27 201.833 -81 269.5s-124.667 101.5 -212 101.5c-84.667 0 -155.667 -31.167 -213 -93.5s-86 -155.5 -86 -279.5z" />
    <glyph glyph-name="q" unicode="q" horiz-adv-x="1230" 
d="M88 518c0 164 43.665 295.499 130.998 394.499s200 148.5 338 148.5c45.333 0 87.333 -6.16699 126 -18.5s69.667 -26.666 93 -42.999s43.833 -33 61.5 -50s29.834 -31.833 36.501 -44.5l11 -18h4c-1.33301 20.667 -2 44.334 -2 71.001v78h188v-1446h-198v473l4 91h-4
c-2.66699 -5.33301 -6.5 -11.833 -11.5 -19.5s-16.667 -21.834 -35 -42.501s-39.166 -38.834 -62.499 -54.501s-54.833 -30 -94.5 -43s-82.5 -19.5 -128.5 -19.5c-139.333 0 -250.333 49.833 -333 149.5s-124 230.834 -124 393.501zM290.998 517.999
c0 -112 27 -201.833 81 -269.5s124.667 -101.5 212 -101.5c84.667 0 155.667 31.167 213 93.5s86 155.5 86 279.5c0 100 -25.667 186.5 -77 259.5s-123.333 109.5 -216 109.5c-84.667 0 -155.667 -33.167 -213 -99.5s-86 -156.833 -86 -271.5z" />
    <glyph glyph-name="r" unicode="r" horiz-adv-x="768" 
d="M156 0l-0.000976562 1036h192v-180l-4 -78h4c24.667 79.333 66 144.333 124 195s126 76 204 76l51 -5v-196c-18 4 -37 6 -57 6c-64 0 -122.667 -21.833 -176 -65.5s-91.666 -103.167 -114.999 -178.5c-16.667 -53.333 -25 -115.333 -25 -186v-424h-198z" />
    <glyph glyph-name="s" unicode="s" horiz-adv-x="917" 
d="M72 127l95.998 141.002c8 -9.33301 20.167 -20.5 36.5 -33.5s50.5 -30.833 102.5 -53.5s104.667 -34 158 -34c46.667 0 87 11.667 121 35s51 54.666 51 93.999c0 34 -18.5 64.167 -55.5 90.5s-81.333 49.333 -133 69s-103.5 41.5 -155.5 65.5s-96.5 58.5 -133.5 103.5
s-55.5 98.833 -55.5 161.5c0 91.333 35.5 163.333 106.5 216s160.5 79 268.5 79c66.667 0 128.167 -9.5 184.5 -28.5s95.166 -38.167 116.499 -57.5l33 -29l-80 -149c-6.66699 6.66699 -16.5 15.167 -29.5 25.5s-41.667 24 -86 41s-91.166 25.5 -140.499 25.5
c-48 0 -88.333 -10.667 -121 -32s-49 -53 -49 -95c0 -34 18.5 -63.333 55.5 -88s81.333 -46.834 133 -66.501s103.5 -41.5 155.5 -65.5s96.5 -58.5 133.5 -103.5s55.5 -99.167 55.5 -162.5c0 -87.333 -34.5 -159.333 -103.5 -216s-159.5 -85 -271.5 -85
c-75.333 0 -145.666 12.667 -210.999 38s-111.666 51 -138.999 77z" />
    <glyph glyph-name="t" unicode="t" horiz-adv-x="733" 
d="M199 379l-0.000976562 483h-136v160h142v299h192v-299h250v-160h-250v-461c0 -39.333 5.5 -73.666 16.5 -102.999s24.333 -52.166 40 -68.499s34.167 -29.333 55.5 -39s40.5 -15.834 57.5 -18.501s34.167 -4 51.5 -4l48 4v-176c-19.333 -2.66699 -42.666 -4 -69.999 -4
c-32.667 0 -64 2 -94 6s-64.167 14.167 -102.5 30.5s-71.5 37.833 -99.5 64.5s-51.833 64.667 -71.5 114s-29.5 106.666 -29.5 171.999z" />
    <glyph glyph-name="u" unicode="u" horiz-adv-x="1224" 
d="M141 373v662.998h199v-618c0 -83.333 13.333 -147.166 40 -191.499s78.334 -66.5 155.001 -66.5c101.333 0 182.5 38.167 243.5 114.5s91.5 168.5 91.5 276.5v485h199v-1036h-192v137l4 76h-4c-26 -60 -72.833 -114.667 -140.5 -164s-147.834 -74 -240.501 -74
c-236.667 0.666992 -355 133.334 -355 398.001z" />
    <glyph glyph-name="v" unicode="v" horiz-adv-x="1028" 
d="M401 0l-387 1036h211l252 -700c5.33301 -16.667 10.833 -36.834 16.5 -60.501l14.5 -58.5l4 -22h4l4 22l16 58c6 24 11.667 44.333 17 61l252 700h209l-383 -1036h-230z" />
    <glyph glyph-name="w" unicode="w" horiz-adv-x="1667" 
d="M369 0l-334.001 1036h211l215 -727l13 -51c4.66699 -19.333 7.66699 -34.333 9 -45l4 -14h5c6.66699 38 15.334 74.667 26.001 110l225 725h183l223 -725l29 -110h4c5.33301 38 13.333 74.667 24 110l217 727h209l-334 -1036h-219l-215 666l-28 112h-5
c-8 -39.333 -17.333 -76.666 -28 -111.999l-213 -666h-221z" />
    <glyph glyph-name="x" unicode="x" horiz-adv-x="1040" 
d="M522 403h-4c-10.667 -22 -21 -41 -31 -57l-217 -346h-225l352 532l-334 504h228l192 -315l35 -62h4c12 23.333 23.667 44 35 62l193 315h227l-334 -504l352 -532h-225l-217 346z" />
    <glyph glyph-name="y" unicode="y" horiz-adv-x="1044" 
d="M10 -367l69.998 152c38 -28.667 78.333 -43 121 -43c82 0 144 50.667 186 152l51 118l-434 1024h223l260 -678l39 -125h4c10.667 46.667 22.334 87.667 35.001 123l252 680h215l-485 -1222c-31.333 -78 -76.666 -138.167 -135.999 -180.5s-126 -63.5 -200 -63.5
c-34 0 -67.833 5.5 -101.5 16.5s-58.5 21.833 -74.5 32.5z" />
    <glyph glyph-name="z" unicode="z" horiz-adv-x="1058" 
d="M80 0l0.000976562 115l522 655l86 96v4c-22 -2.66699 -55.333 -4 -100 -4h-486v170h854v-114l-522 -658l-88 -94v-4c23.333 2.66699 57.666 4 102.999 4h526v-170h-895z" />
    <glyph glyph-name="braceleft" unicode="{" horiz-adv-x="716" 
d="M274 158l0.00292969 196.003c0 39.333 -6 73.833 -18 103.5s-26.333 51.667 -43 66s-33.5 25.833 -50.5 34.5s-31.5 13.667 -43.5 15l-19 5v176c4 0 10.167 0.666992 18.5 2s22.333 6.66602 42 15.999s37.5 21.5 53.5 36.5s30 37.667 42 68s18 65.166 18 104.499v172
c0 61.333 8.66699 114.833 26 160.5s37.833 80.5 61.5 104.5s52.334 43.5 86.001 58.5s62.334 24.167 86.001 27.5s47.834 5 72.501 5l47 -2v-151h-28c-18 0 -34.833 -2.5 -50.5 -7.5s-34.167 -13.833 -55.5 -26.5s-38.333 -34.5 -51 -65.5s-19 -69.5 -19 -115.5v-211
c0 -38 -5.83301 -72.833 -17.5 -104.5s-25.667 -56.667 -42 -75s-32.5 -34 -48.5 -47s-30 -22.167 -42 -27.5l-16 -6v-4c4 -1.33301 9.66699 -3.5 17 -6.5s20.666 -11.333 39.999 -25s36.166 -29.334 50.499 -47.001s27.666 -42.5 39.999 -74.5s18.5 -67.667 18.5 -107v-236
c0 -46.667 6.33301 -85.334 19 -116.001s29.667 -52.5 51 -65.5s39.833 -21.833 55.5 -26.5s32.5 -7 50.5 -7h28v-152c-12 -2.66699 -27.667 -4 -47 -4c-24.667 0 -48.834 1.83301 -72.501 5.5s-52.334 13 -86.001 28s-62.334 34.333 -86.001 58
s-44.167 58.834 -61.5 105.501s-26 100.667 -26 162z" />
    <glyph glyph-name="bar" unicode="|" horiz-adv-x="579" 
d="M203 -326v1948h174v-1948h-174z" />
    <glyph glyph-name="braceright" unicode="}" horiz-adv-x="716" 
d="M63 -45l28.9961 -0.00390625c18 0 34.833 2.33301 50.5 7s34 13.5 55 26.5s38 34.833 51 65.5s19.5 69.334 19.5 116.001v236c0 62.667 14 115.5 42 158.5s55.667 70.5 83 82.5l41 19v4c-4 1.33301 -9.66699 3.66602 -17 6.99902s-20.666 11.833 -39.999 25.5
s-36.166 29.334 -50.499 47.001s-27.666 42.5 -39.999 74.5s-18.5 67.333 -18.5 106v211c0 46.667 -6.5 85.334 -19.5 116.001s-30 52.334 -51 65.001s-39.333 21.5 -55 26.5s-32.5 7.5 -50.5 7.5h-29v151c12 1.33301 28 2 48 2c24.667 0 48.834 -1.66699 72.501 -5
s52.167 -12.5 85.5 -27.5s62 -34.5 86 -58.5s44.5 -58.833 61.5 -104.5s25.5 -99.167 25.5 -160.5v-172c0 -114.667 46 -187.667 138 -219l36 -8v-176c-4 0 -10 -0.833008 -18 -2.5s-22 -7.16699 -42 -16.5s-37.833 -21.166 -53.5 -35.499s-29.667 -36.166 -42 -65.499
s-18.5 -64 -18.5 -104v-196c0 -61.333 -8.5 -115.333 -25.5 -162s-37.5 -81.834 -61.5 -105.501s-52.667 -43 -86 -58s-62 -24.333 -86 -28s-48 -5.5 -72 -5.5l-48 4v152z" />
    <glyph glyph-name="asciitilde" unicode="~" horiz-adv-x="1245" 
d="M137 418c0 116 24.999 202.667 74.999 260s120.667 86 212 86c48 0 91.333 -10.667 130 -32s68.334 -44.166 89.001 -68.499s46 -47.166 76 -68.499s62 -32 96 -32c49.333 0 84.5 19.167 105.5 57.5s31.5 83.5 31.5 135.5h162c0 -230.667 -95 -346 -285 -346
c-48 0 -91.333 10.167 -130 30.5s-68.167 43.166 -88.5 68.499s-46 48.166 -77 68.499s-63.5 30.5 -97.5 30.5c-48 0 -82.833 -19 -104.5 -57s-32.5 -82.333 -32.5 -133h-162z" />
    <glyph glyph-name="uni00A0" unicode="&#xa0;" horiz-adv-x="526" 
 />
    <glyph glyph-name="exclamdown" unicode="&#xa1;" horiz-adv-x="591" 
d="M193 838v198h202v-198h-202zM193 -410l14 1049h178l12 -1049h-204z" />
    <glyph glyph-name="cent" unicode="&#xa2;" horiz-adv-x="1179" 
d="M541 -27l0.000976562 177c-132.667 18 -237.834 80.5 -315.501 187.5s-116.5 235.5 -116.5 385.5c0 151.333 38.833 280.666 116.5 387.999s182.834 169.666 315.501 186.999v172h145v-172c88.667 -13.333 166.167 -47.666 232.5 -102.999
s117.166 -126.666 152.499 -213.999l-180 -70c-60 135.333 -151 203 -273 203c-95.333 0 -170.333 -36.5 -225 -109.5s-82 -166.833 -82 -281.5c0 -117.333 26.667 -211.5 80 -282.5s129 -106.5 227 -106.5c122.667 0 213.667 67.667 273 203l180 -72
c-36.667 -83.333 -87.5 -154.333 -152.5 -213s-142.5 -92.667 -232.5 -102v-177h-145z" />
    <glyph glyph-name="sterling" unicode="&#xa3;" horiz-adv-x="1210" 
d="M150 653l-0.000976562 144.001h90v278c0 113.333 42 207.5 126 282.5s190 112.5 318 112.5c124 0 234.667 -40 332 -120l10 -11l-117 -141c-65.333 58.667 -139.666 88 -222.999 88c-74 0 -132.833 -20.833 -176.5 -62.5s-65.5 -93.834 -65.5 -156.501v-270h377v-144
h-377v-477h666v-176h-995v176h125v477h-90z" />
    <glyph glyph-name="yen" unicode="&#xa5;" horiz-adv-x="1243" 
d="M184 711v129h211l-338 606h232l241 -451l88 -209h5c28.667 75.333 58 145 88 209l243 451h232l-340 -606h209v-129h-277l-55 -99v-75h332v-129h-332v-408h-205v408h-334v129h334v75l-55 99h-279z" />
    <glyph glyph-name="section" unicode="&#xa7;" horiz-adv-x="905" 
d="M285 227l-144.001 799.002c-8 31.333 -12 62.666 -12 93.999c0 102.667 34.833 186.667 104.5 252s163.834 98 282.501 98c52 0 102.167 -8.83301 150.5 -26.5s83.5 -34.5 105.5 -50.5l33 -27l-94 -131c-54.667 46.667 -119.667 70 -195 70
c-64 0 -116.5 -17.833 -157.5 -53.5s-61.5 -86.834 -61.5 -153.501c0 -24.667 4 -52 12 -82l140 -789h-164zM97.999 -22.998l90 138c56 -50.667 122.333 -76 199 -76c62.667 0 114.5 18.833 155.5 56.5s61.5 90.5 61.5 158.5c0 27.333 -4 58 -12 92l-135 770h161l144 -799
c6.66699 -36.667 10 -67.334 10 -92.001c0 -104 -34.833 -188.667 -104.5 -254s-163.167 -98 -280.5 -98c-53.333 0 -103.833 8.83301 -151.5 26.5s-82.5 34.834 -104.5 51.501z" />
    <glyph glyph-name="dieresis" unicode="&#xa8;" horiz-adv-x="1021" 
d="M600 1599v207h164v-207h-164zM258 1599v207h164v-207h-164z" />
    <glyph glyph-name="copyright" unicode="&#xa9;" 
d="M111 723c0 207.333 70.667 383.666 212 528.999s313 218 515 218c203.333 0 376.333 -72.667 519 -218s214 -321.666 214 -528.999s-71.333 -383.833 -214 -529.5s-315.667 -218.5 -519 -218.5c-202 0 -373.667 72.833 -515 218.5s-212 322.167 -212 529.5zM260 723
c0 -170.667 55.667 -314.667 167 -432s248.333 -176 411 -176c165.333 0 303.833 58.667 415.5 176s167.5 261.333 167.5 432s-56 314.667 -168 432s-250.333 176 -415 176c-162.667 0 -299.667 -58.667 -411 -176s-167 -261.333 -167 -432zM449 721
c0 112 37.1689 208.165 111.502 288.498s171.5 120.5 291.5 120.5c130 0 233.667 -55 311 -165l23 -37l-125 -68c-5.33301 9.33301 -13.166 21.333 -23.499 36s-32.833 33.834 -67.5 57.501s-72 35.5 -112 35.5c-78 0 -139.833 -26.333 -185.5 -79
s-68.5 -115.667 -68.5 -189c0 -76.667 22.5 -140.5 67.5 -191.5s107.167 -76.5 186.5 -76.5c39.333 0 76.166 10.833 110.499 32.5s58.166 42.834 71.499 63.501l21 33l125 -68c-2.66699 -5.33301 -6.83398 -12.5 -12.501 -21.5s-18.334 -25.333 -38.001 -49
s-41.167 -44.5 -64.5 -62.5s-54.666 -34.167 -93.999 -48.5s-81 -21.5 -125 -21.5c-120 0 -217.167 40 -291.5 120s-111.5 176.667 -111.5 290z" />
    <glyph glyph-name="ordfeminine" unicode="&#xaa;" horiz-adv-x="864" 
d="M373 782c-58.667 0 -110.166 17.832 -154.499 53.499s-66.5 84.167 -66.5 145.5c0 150 128.333 225 385 225h20v13c0 86 -43.667 129 -131 129c-26 0 -53.333 -4.83301 -82 -14.5s-50.334 -19.167 -65.001 -28.5l-23 -15l-59 101
c61.333 50.667 143.666 75.667 246.999 75c84.667 0 149.334 -22.167 194.001 -66.5s67 -108.166 67 -191.499v-411h-140v94h-4c-4 -8 -10.5 -18.167 -19.5 -30.5s-29.5 -28.5 -61.5 -48.5s-67.667 -30 -107 -30zM403.001 902.999c45.333 0 82.333 18.833 111 56.5
s43 79.5 43 125.5v17h-25c-155.333 0 -233 -37 -233 -111c0 -24.667 9.16699 -45.5 27.5 -62.5s43.833 -25.5 76.5 -25.5zM150.001 542.999v116h563v-116h-563z" />
    <glyph glyph-name="guillemotleft" unicode="&#xab;" horiz-adv-x="1138" 
d="M502 578l336 421h198l-336 -421l336 -420h-198zM426 158l-336 420l336 421h199l-336 -421l336 -420h-199z" />
    <glyph glyph-name="logicalnot" unicode="&#xac;" horiz-adv-x="1257" 
d="M123 696v160h977v-547h-166v387h-811z" />
    <glyph glyph-name="uni00AD" unicode="&#xad;" horiz-adv-x="882" 
d="M143 496v176h598v-176h-598z" />
    <glyph glyph-name="registered" unicode="&#xae;" 
d="M111 723c0 207.333 70.667 383.666 212 528.999s313 218 515 218c203.333 0 376.333 -72.667 519 -218s214 -321.666 214 -528.999s-71.333 -383.833 -214 -529.5s-315.667 -218.5 -519 -218.5c-202 0 -373.667 72.833 -515 218.5s-212 322.167 -212 529.5zM260 723
c0 -170.667 55.667 -314.667 167 -432s248.333 -176 411 -176c165.333 0 303.833 58.667 415.5 176s167.5 261.333 167.5 432s-56 314.667 -168 432s-250.333 176 -415 176c-162.667 0 -299.667 -58.667 -411 -176s-167 -261.333 -167 -432zM588 340l0.000976562 771.998
h297c74 0 133 -21.5 177 -64.5s66 -99.833 66 -170.5c0 -54.667 -14.333 -100.167 -43 -136.5s-61.334 -59.166 -98.001 -68.499v-4c5.33301 -5.33301 14.333 -19.666 27 -42.999l147 -285h-160l-143 299h-125v-299h-145zM733.001 744.998l123 0.000976562
c38 0 68.333 11.667 91 35s34 55.666 34 96.999c0 39.333 -11.333 69.833 -34 91.5s-53 32.5 -91 32.5h-123v-256z" />
    <glyph glyph-name="macron" unicode="&#xaf;" horiz-adv-x="1021" 
d="M250 1606v143h522v-143h-522z" />
    <glyph glyph-name="degree" unicode="&#xb0;" horiz-adv-x="796" 
d="M397 864c-86 0 -159 29.3311 -219 87.998s-90 130.334 -90 215.001c0 83.333 30 154.666 90 213.999s133 89 219 89s159.5 -29.667 220.5 -89s91.5 -130.666 91.5 -213.999s-30.5 -154.666 -91.5 -213.999s-134.5 -89 -220.5 -89zM397.5 1016
c42.333 0 78.166 14.667 107.499 44s44 65.166 44 107.499s-14.667 78.5 -44 108.5s-65.166 45 -107.499 45s-78.166 -15 -107.499 -45s-44 -66.167 -44 -108.5s14.667 -78.166 44 -107.499s65.166 -44 107.499 -44z" />
    <glyph glyph-name="plusminus" unicode="&#xb1;" horiz-adv-x="1394" 
d="M156 504v160h458v503h168v-503h457v-160h-457v-504h-168v504h-458zM188 -195h1018v-159h-1018v159z" />
    <glyph glyph-name="uni00B2" unicode="&#xb2;" horiz-adv-x="796" 
d="M102 866c0 5.33301 -0.666016 13.1709 -1.99902 23.5039s-2.33301 19.666 -3 27.999s-1 15.833 -1 22.5c0 64 15 121 45 171s66.167 90.333 108.5 121s84.666 59.334 126.999 86.001s78.5 55.667 108.5 87s45 65.333 45 102c0 38 -14 69.667 -42 95s-63 38 -105 38
c-64 -2.66699 -121.333 -35.334 -172 -98.001l-100 92l11 17c4.66699 6.66699 15.5 18.167 32.5 34.5s35.833 31 56.5 44s47 25 79 36s65.667 16.5 101 16.5c84.667 0 155 -25 211 -75s84 -114.667 84 -194c0 -54.667 -14 -103.834 -42 -147.501
s-62.5 -79.334 -103.5 -107.001s-82 -53.834 -123 -78.501s-76.167 -51.667 -105.5 -81s-45.333 -62 -48 -98h436v-135h-598z" />
    <glyph glyph-name="uni00B3" unicode="&#xb3;" horiz-adv-x="796" 
d="M383 846c-61.333 0 -117 11.168 -167 33.501s-85 44.5 -105 66.5l-29 35l86 109c5.33301 -8 13.5 -17.667 24.5 -29s34.5 -26.5 70.5 -45.5s74 -28.5 114 -28.5c45.333 0 85 15 119 45s51 67 51 111c0 45.333 -18.167 80.833 -54.5 106.5s-78.833 38.5 -127.5 38.5h-70
l-33 78l182 211l50 49v4c-26 -4 -50.667 -6 -74 -6h-289v137h555v-98l-223 -258c68 -9.33301 124.833 -36.333 170.5 -81s68.5 -105 68.5 -181c0 -80.667 -30.333 -150.334 -91 -209.001s-136.667 -88 -228 -88z" />
    <glyph glyph-name="acute" unicode="&#xb4;" horiz-adv-x="1021" 
d="M330 1546l149 260h213l-196 -260h-166z" />
    <glyph glyph-name="mu" unicode="&#xb5;" horiz-adv-x="1267" 
d="M170 -410l-0.000976562 1446h199v-618c0 -83.333 13.333 -147.166 40 -191.499s77.334 -66.5 152.001 -66.5c102.667 0 184.667 38.167 246 114.5s92 168.5 92 276.5v485h199v-1036h-193v141l4 72h-6c-2.66699 -6.66699 -6.66699 -15.167 -12 -25.5
s-18.666 -29.166 -39.999 -56.499s-45.333 -51.5 -72 -72.5s-62.834 -40.167 -108.501 -57.5s-95.167 -26 -148.5 -26c-87.333 1.33301 -149.333 22.666 -186 63.999h-4c9.33301 -66.667 14 -120 14 -160v-289h-176z" />
    <glyph glyph-name="mu" unicode="&#x3bc;" horiz-adv-x="1267" 
d="M170 -410l-0.000976562 1446h199v-618c0 -83.333 13.333 -147.166 40 -191.499s77.334 -66.5 152.001 -66.5c102.667 0 184.667 38.167 246 114.5s92 168.5 92 276.5v485h199v-1036h-193v141l4 72h-6c-2.66699 -6.66699 -6.66699 -15.167 -12 -25.5
s-18.666 -29.166 -39.999 -56.499s-45.333 -51.5 -72 -72.5s-62.834 -40.167 -108.501 -57.5s-95.167 -26 -148.5 -26c-87.333 1.33301 -149.333 22.666 -186 63.999h-4c9.33301 -66.667 14 -120 14 -160v-289h-176z" />
    <glyph glyph-name="paragraph" unicode="&#xb6;" horiz-adv-x="1208" 
d="M573 -102v595.999c-132.667 0 -246.667 46 -342 138s-143 204.833 -143 338.5s47.5 246.334 142.5 338.001s208.5 137.5 340.5 137.5h557v-176h-401v-1372h-154zM854 -102.001v1255h152v-1255h-152z" />
    <glyph glyph-name="periodcentered" unicode="&#xb7;" horiz-adv-x="563" 
d="M180 489v211h203v-211h-203z" />
    <glyph glyph-name="cedilla" unicode="&#xb8;" horiz-adv-x="1021" 
d="M449 47l100.002 -20v-17l-25 -112c44 -5.33301 79.667 -21 107 -47s41 -60.333 41 -103c0 -58.667 -20.167 -102 -60.5 -130s-89.833 -42 -148.5 -42l-113 14v119c27.333 -9.33301 56 -14 86 -14c65.333 0 98.166 21.167 98.499 63.5s-35.834 63.5 -108.501 63.5l-37 -2z
" />
    <glyph glyph-name="uni00B9" unicode="&#xb9;" horiz-adv-x="796" 
d="M145 866l-0.000976562 135h191v510l4 54h-4c-5.33301 -12 -17.666 -27 -36.999 -45l-72 -70l-94 100l217 211h139v-760h187v-135h-531z" />
    <glyph glyph-name="ordmasculine" unicode="&#xba;" horiz-adv-x="956" 
d="M477.5 786c-98.333 0 -181.335 32.5 -249.002 97.5s-101.5 147.167 -101.5 246.5c0 96.667 33.833 177.167 101.5 241.5s149.834 96.5 246.501 96.5c98 0 181.167 -32 249.5 -96s102.5 -144.667 102.5 -242c0 -100 -33.667 -182.333 -101 -247s-150.166 -97 -248.499 -97
zM476.998 918c56 0 103.5 20.001 142.5 60.001s58.5 90.667 58.5 152c0 60 -19.5 109.5 -58.5 148.5s-86.5 58.5 -142.5 58.5c-57.333 0 -105.5 -19.333 -144.5 -58s-58.5 -88.334 -58.5 -149.001c0 -61.333 19.5 -112 58.5 -152s87.167 -60 144.5 -60zM159.998 543.001v116
h639v-116h-639z" />
    <glyph glyph-name="guillemotright" unicode="&#xbb;" horiz-adv-x="1140" 
d="M516 158l336 420l-336 421h199l336 -421l-336 -420h-199zM102 158l336 420l-336 421h199l336 -421l-336 -420h-199z" />
    <glyph glyph-name="onequarter" unicode="&#xbc;" horiz-adv-x="1980" 
d="M688 0h-153l688 1446h153zM121 551l-0.000976562 135h190v510l4 53h-4c-5.33301 -12 -17.666 -27 -36.999 -45l-71 -69l-94 100l217 211h139v-760h186v-135h-530zM1593 0v219h-426v103l412 573h166v-541h125v-135h-125v-219h-152zM1335 354l258 0.000976562v252l6 119h-4
c-19.333 -36.667 -39 -69.334 -59 -98.001l-201 -269v-4z" />
    <glyph glyph-name="onehalf" unicode="&#xbd;" horiz-adv-x="1968" 
d="M692 0h-153l688 1446h153zM121 551l-0.000976562 135h190v510l4 53h-4c-5.33301 -12 -17.666 -27 -36.999 -45l-71 -69l-94 100l217 211h139v-760h186v-135h-530zM1235 0c0 5.33301 -0.665039 13.167 -1.99805 23.5s-2.33301 19.5 -3 27.5s-1 15.667 -1 23
c0 64 15 120.833 45 170.5s66.167 90 108.5 121s84.666 59.833 126.999 86.5s78.5 55.667 108.5 87s45 65.333 45 102c0 38 -14 69.667 -42 95s-63 38 -105 38c-64 -2.66699 -121.667 -35.334 -173 -98.001l-100 92l11 16c4.66699 6.66699 15.667 18.334 33 35.001
s36.166 31.5 56.499 44.5s46.5 24.833 78.5 35.5s66 16 102 16c84.667 0 155 -24.833 211 -74.5s84 -114.167 84 -193.5c0 -54.667 -14 -103.834 -42 -147.501s-62.5 -79.5 -103.5 -107.5s-82 -54.333 -123 -79s-76.167 -51.667 -105.5 -81s-45.333 -61.666 -48 -96.999h436
v-135h-598z" />
    <glyph glyph-name="threequarters" unicode="&#xbe;" horiz-adv-x="2004" 
d="M713 0h-154l688 1446h154zM1618 0v219h-426v103l412 573h165v-541h125v-135h-125v-219h-151zM1360 354l258 0.000976562v252l6 119h-4c-19.333 -36.667 -39 -69.334 -59 -98.001l-201 -269v-4zM383 530.001c-61.333 0 -117 11.335 -167 34.002s-85 45 -105 67l-29 35
l86 108c5.33301 -8 13.5 -17.5 24.5 -28.5s34.5 -26 70.5 -45s74 -28.5 114 -28.5c45.333 0 85 15 119 45s51 66.667 51 110c0 45.333 -18.167 81 -54.5 107s-78.833 39 -127.5 39h-70l-33 78l182 211l50 49v4c-26 -4 -50.667 -6 -74 -6h-289v137h555v-98l-223 -258
c68 -9.33301 124.833 -36.333 170.5 -81s68.5 -105.334 68.5 -182.001c0 -80.667 -30.333 -150.334 -91 -209.001s-136.667 -88 -228 -88z" />
    <glyph glyph-name="questiondown" unicode="&#xbf;" horiz-adv-x="921" 
d="M438 838v198h203v-198h-203zM80 -57c0 62.667 12.335 118.832 37.002 168.499s54.667 91.334 90 125.001s71.166 65.834 107.499 96.501s66.666 65.5 90.999 104.5s36.5 80.833 36.5 125.5v76h193v-88c0 -57.333 -12 -109.833 -36 -157.5s-52.667 -87.834 -86 -120.501
l-101 -93c-34 -30 -63 -63.667 -87 -101s-36 -77.333 -36 -120c0 -57.333 22.167 -105.833 66.5 -145.5s99.833 -59.5 166.5 -59.5c38 0 76.5 7.5 115.5 22.5s68.167 29.5 87.5 43.5l31 22l108 -141c-4 -4 -9.33301 -8.83301 -16 -14.5s-21.667 -16 -45 -31
s-48 -28.167 -74 -39.5s-58.833 -21.833 -98.5 -31.5s-80.5 -14.5 -122.5 -14.5c-118.667 0 -219.667 34.5 -303 103.5s-125 158.833 -125 269.5z" />
    <glyph glyph-name="Agrave" unicode="&#xc0;" horiz-adv-x="1286" 
d="M1059 0l-146 416h-544l-144 -416h-209l521 1446h213l520 -1446h-211zM645 1247l-4 -0.000976562c-22 -87.333 -41 -155.666 -57 -204.999l-162 -458h438l-160 458zM563 1546l-194 260h213l149 -260h-168z" />
    <glyph glyph-name="Aacute" unicode="&#xc1;" horiz-adv-x="1286" 
d="M1059 0l-146 416h-544l-144 -416h-209l521 1446h213l520 -1446h-211zM645 1247l-4 -0.000976562c-22 -87.333 -41 -155.666 -57 -204.999l-162 -458h438l-160 458zM553 1546l149 260h213l-196 -260h-166z" />
    <glyph glyph-name="Acircumflex" unicode="&#xc2;" horiz-adv-x="1286" 
d="M1059 0l-146 416h-544l-144 -416h-209l521 1446h213l520 -1446h-211zM645 1247l-4 -0.000976562c-22 -87.333 -41 -155.666 -57 -204.999l-162 -458h438l-160 458zM358 1546l181 260h206l181 -260h-174l-109 164h-4l-107 -164h-174z" />
    <glyph glyph-name="Atilde" unicode="&#xc3;" horiz-adv-x="1286" 
d="M1059 0l-146 416h-544l-144 -416h-209l521 1446h213l520 -1446h-211zM645 1247l-4 -0.000976562c-22 -87.333 -41 -155.666 -57 -204.999l-162 -458h438l-160 458zM299 1548c0 173.333 69.667 260 209 260c39.333 0 74 -11.5 104 -34.5s57.333 -46.167 82 -69.5
s48.667 -35 72 -35c27.333 0 47.5 13.333 60.5 40s19.5 57.667 19.5 93h143c0 -173.333 -69.667 -260 -209 -260c-39.333 0 -74 11.667 -104 35s-57.333 46.5 -82 69.5s-48.667 34.5 -72 34.5c-53.333 0 -80 -44.333 -80 -133h-143z" />
    <glyph glyph-name="Adieresis" unicode="&#xc4;" horiz-adv-x="1286" 
d="M1059 0l-146 416h-544l-144 -416h-209l521 1446h213l520 -1446h-211zM645 1247l-4 -0.000976562c-22 -87.333 -41 -155.666 -57 -204.999l-162 -458h438l-160 458zM733 1599v207h164v-207h-164zM391 1599v207h164v-207h-164z" />
    <glyph glyph-name="Aring" unicode="&#xc5;" horiz-adv-x="1286" 
d="M1059 0l-146 416h-544l-144 -416h-209l521 1446h213l520 -1446h-211zM645 1247l-4 -0.000976562c-22 -87.333 -41 -155.666 -57 -204.999l-162 -458h438l-160 458zM643 1522c-48 0 -89 14 -123 42s-51 64.333 -51 109c0 46.667 17 84 51 112s75 42 123 42s89 -14 123 -42
s51 -65.333 51 -112c0 -45.333 -17 -81.833 -51 -109.5s-75 -41.5 -123 -41.5zM643 1606c19.333 0 35.5 6.5 48.5 19.5s19.5 28.833 19.5 47.5c0 22 -6.5 39.5 -19.5 52.5s-29.167 19.5 -48.5 19.5c-20.667 0 -37.167 -6.5 -49.5 -19.5s-18.5 -30.5 -18.5 -52.5
c0 -19.333 6.16699 -35.333 18.5 -48s28.833 -19 49.5 -19z" />
    <glyph glyph-name="AE" unicode="&#xc6;" horiz-adv-x="1798" 
d="M8 0l598 1446h1057v-176h-639v-453h520v-176h-520v-465h674v-176h-875v643h-346l-258 -643h-211zM729 1270l-184 -459h278v459h-94z" />
    <glyph glyph-name="Ccedilla" unicode="&#xc7;" horiz-adv-x="1482" 
d="M102 731c0 210 69.999 385.672 209.999 527.005s315.333 212 526 212c65.333 0 128 -6.33301 188 -19s109.5 -28.334 148.5 -47.001s73.5 -37.5 103.5 -56.5s51.667 -35.5 65 -49.5l21 -18l-100 -152c-12 12 -29.667 26.667 -53 44s-71.666 40.666 -144.999 69.999
s-146.666 44 -219.999 44c-158.667 0 -287.5 -52.833 -386.5 -158.5s-148.5 -237.167 -148.5 -394.5c0 -158.667 50.167 -293.5 150.5 -404.5s229.166 -166.5 386.499 -166.5c80.667 0 158.167 15.667 232.5 47s128.5 62.666 162.5 93.999l51 47l109 -145l-23 -24
c-9.33301 -10 -31 -27.333 -65 -52s-70.167 -46.834 -108.5 -66.501s-87.5 -38.334 -147.5 -56.001s-122.333 -28.167 -187 -31.5l-16 -77c44 -5.33301 79.667 -21 107 -47s41 -60.333 41 -103c0 -58.667 -20.167 -102 -60.5 -130s-89.833 -42 -148.5 -42l-113 14v119
c27.333 -9.33301 56 -14 86 -14c65.333 0 98 21.167 98 63.5s-36 63.5 -108 63.5l-37 -2l41 160c-194 18 -352.5 97.5 -475.5 238.5s-184.5 311.833 -184.5 512.5z" />
    <glyph glyph-name="Egrave" unicode="&#xc8;" horiz-adv-x="1173" 
d="M197 0v1446h839v-176h-637v-453h519v-176h-519v-465h672v-176h-874zM559 1546l-194 260h213l149 -260h-168z" />
    <glyph glyph-name="Eacute" unicode="&#xc9;" horiz-adv-x="1173" 
d="M197 0v1446h839v-176h-637v-453h519v-176h-519v-465h672v-176h-874zM551 1546l149 260h213l-196 -260h-166z" />
    <glyph glyph-name="Ecircumflex" unicode="&#xca;" horiz-adv-x="1173" 
d="M197 0v1446h839v-176h-637v-453h519v-176h-519v-465h672v-176h-874zM356 1546l181 260h206l181 -260h-174l-109 164h-4l-107 -164h-174z" />
    <glyph glyph-name="Edieresis" unicode="&#xcb;" horiz-adv-x="1173" 
d="M197 0v1446h839v-176h-637v-453h519v-176h-519v-465h672v-176h-874zM729 1599v207h164v-207h-164zM387 1599v207h164v-207h-164z" />
    <glyph glyph-name="Igrave" unicode="&#xcc;" horiz-adv-x="595" 
d="M197 0v1446h202v-1446h-202zM219 1546l-194 260h213l149 -260h-168z" />
    <glyph glyph-name="Iacute" unicode="&#xcd;" horiz-adv-x="595" 
d="M197 0v1446h202v-1446h-202zM211 1546l149 260h213l-196 -260h-166z" />
    <glyph glyph-name="Icircumflex" unicode="&#xce;" horiz-adv-x="595" 
d="M197 0v1446h202v-1446h-202zM14 1546l181 260h206l181 -260h-174l-109 164h-4l-107 -164h-174z" />
    <glyph glyph-name="Idieresis" unicode="&#xcf;" horiz-adv-x="595" 
d="M197 0v1446h202v-1446h-202zM389 1599v207h164v-207h-164zM47 1599v207h164v-207h-164z" />
    <glyph glyph-name="Eth" unicode="&#xd0;" horiz-adv-x="1554" 
d="M236 0v639h-121v168h121v639h479c224 0 402.167 -63.833 534.5 -191.5s198.5 -304.167 198.5 -529.5c0 -226.667 -66.167 -404.167 -198.5 -532.5s-310.5 -192.5 -534.5 -192.5h-479zM438 176l262 -0.000976562c165.333 0 296.5 47.833 393.5 143.5
s145.5 230.834 145.5 405.501c0 173.333 -48.5 307.5 -145.5 402.5s-228.167 142.5 -393.5 142.5h-262v-463h305v-168h-305v-463z" />
    <glyph glyph-name="Ntilde" unicode="&#xd1;" horiz-adv-x="1550" 
d="M197 0l-0.000976562 1446h200l643 -940c16.667 -23.333 35 -52.333 55 -87l48 -87l18 -35h4c-9.33301 86 -14 155.667 -14 209v940h203v-1446h-199l-645 938c-35.333 53.333 -75.666 123.666 -120.999 210.999h-4c9.33301 -86 14 -156.333 14 -211v-938h-202z
M429.999 1548c0 173.333 69.667 260 209 260c39.333 0 74 -11.5 104 -34.5s57.333 -46.167 82 -69.5s48.667 -35 72 -35c27.333 0 47.5 13.333 60.5 40s19.5 57.667 19.5 93h143c0 -173.333 -69.667 -260 -209 -260c-39.333 0 -74 11.667 -104 35s-57.333 46.5 -82 69.5
s-48.667 34.5 -72 34.5c-53.333 0 -80 -44.333 -80 -133h-143z" />
    <glyph glyph-name="Ograve" unicode="&#xd2;" 
d="M98 733c0 207.333 71.667 382 215 524s319.5 213 528.5 213s384.833 -71 527.5 -213s214 -316.667 214 -524c0 -212.667 -71.333 -392.167 -214 -538.5s-318.5 -219.5 -527.5 -219.5s-385.167 73.167 -528.5 219.5s-215 325.833 -215 538.5zM307 733
c0 -161.333 51.833 -296.833 155.5 -406.5s230 -164.5 379 -164.5s275 55 378 165s154.5 245.333 154.5 406c0 157.333 -51.5 288.833 -154.5 394.5s-229 158.5 -378 158.5s-275.333 -52.833 -379 -158.5s-155.5 -237.167 -155.5 -394.5zM762 1546l-195 260h213l150 -260
h-168z" />
    <glyph glyph-name="Oacute" unicode="&#xd3;" 
d="M98 733c0 207.333 71.667 382 215 524s319.5 213 528.5 213s384.833 -71 527.5 -213s214 -316.667 214 -524c0 -212.667 -71.333 -392.167 -214 -538.5s-318.5 -219.5 -527.5 -219.5s-385.167 73.167 -528.5 219.5s-215 325.833 -215 538.5zM307 733
c0 -161.333 51.833 -296.833 155.5 -406.5s230 -164.5 379 -164.5s275 55 378 165s154.5 245.333 154.5 406c0 157.333 -51.5 288.833 -154.5 394.5s-229 158.5 -378 158.5s-275.333 -52.833 -379 -158.5s-155.5 -237.167 -155.5 -394.5zM754 1546l149 260h213l-196 -260
h-166z" />
    <glyph glyph-name="Ocircumflex" unicode="&#xd4;" 
d="M98 733c0 207.333 71.667 382 215 524s319.5 213 528.5 213s384.833 -71 527.5 -213s214 -316.667 214 -524c0 -212.667 -71.333 -392.167 -214 -538.5s-318.5 -219.5 -527.5 -219.5s-385.167 73.167 -528.5 219.5s-215 325.833 -215 538.5zM307 733
c0 -161.333 51.833 -296.833 155.5 -406.5s230 -164.5 379 -164.5s275 55 378 165s154.5 245.333 154.5 406c0 157.333 -51.5 288.833 -154.5 394.5s-229 158.5 -378 158.5s-275.333 -52.833 -379 -158.5s-155.5 -237.167 -155.5 -394.5zM557 1546l180 260h207l180 -260
h-174l-108 164h-4l-107 -164h-174z" />
    <glyph glyph-name="Otilde" unicode="&#xd5;" 
d="M98 733c0 207.333 71.667 382 215 524s319.5 213 528.5 213s384.833 -71 527.5 -213s214 -316.667 214 -524c0 -212.667 -71.333 -392.167 -214 -538.5s-318.5 -219.5 -527.5 -219.5s-385.167 73.167 -528.5 219.5s-215 325.833 -215 538.5zM307 733
c0 -161.333 51.833 -296.833 155.5 -406.5s230 -164.5 379 -164.5s275 55 378 165s154.5 245.333 154.5 406c0 157.333 -51.5 288.833 -154.5 394.5s-229 158.5 -378 158.5s-275.333 -52.833 -379 -158.5s-155.5 -237.167 -155.5 -394.5zM498 1548
c0 173.333 69.6641 260 208.997 260c39.333 0 74 -11.5 104 -34.5s57.333 -46.167 82 -69.5s48.667 -35 72 -35c27.333 0 47.333 13.333 60 40s19 57.667 19 93h144c0 -173.333 -69.667 -260 -209 -260c-39.333 0 -74.166 11.667 -104.499 35s-57.666 46.5 -81.999 69.5
s-48.166 34.5 -71.499 34.5c-53.333 0 -80 -44.333 -80 -133h-143z" />
    <glyph glyph-name="Odieresis" unicode="&#xd6;" 
d="M98 733c0 207.333 71.667 382 215 524s319.5 213 528.5 213s384.833 -71 527.5 -213s214 -316.667 214 -524c0 -212.667 -71.333 -392.167 -214 -538.5s-318.5 -219.5 -527.5 -219.5s-385.167 73.167 -528.5 219.5s-215 325.833 -215 538.5zM307 733
c0 -161.333 51.833 -296.833 155.5 -406.5s230 -164.5 379 -164.5s275 55 378 165s154.5 245.333 154.5 406c0 157.333 -51.5 288.833 -154.5 394.5s-229 158.5 -378 158.5s-275.333 -52.833 -379 -158.5s-155.5 -237.167 -155.5 -394.5zM932 1599v207h164v-207h-164z
M590 1599v207h164v-207h-164z" />
    <glyph glyph-name="multiply" unicode="&#xd7;" horiz-adv-x="1320" 
d="M129 113l422 471l-422 471l113 112l417 -467l420 467l113 -112l-424 -471l424 -471l-113 -113l-420 465l-417 -465z" />
    <glyph glyph-name="Oslash" unicode="&#xd8;" horiz-adv-x="1687" 
d="M102 733c0 207.333 71.668 382 215.001 524s319.666 213 528.999 213c136.667 0 263 -33.333 379 -100l94 129l100 -69l-94 -132c82 -68 146.167 -150.833 192.5 -248.5s69.5 -203.167 69.5 -316.5c0 -212.667 -71.333 -392.167 -214 -538.5
s-318.334 -219.5 -527.001 -219.5c-144.667 0 -275.667 36.333 -393 109l-97 -135l-102 69l100 142c-79.333 69.333 -141.166 153.5 -185.499 252.5s-66.5 205.833 -66.5 320.5zM1378 733c0 165.333 -56 300.667 -168 406l-643 -897c83.333 -53.333 176.333 -80 279 -80
c148.667 0 274.5 54.833 377.5 164.5s154.5 245.167 154.5 406.5zM311.001 733.001c0 -164 53.334 -301 160.001 -411l641 890c-80.667 49.333 -169.334 74 -266.001 74c-148.667 0 -275 -52.833 -379 -158.5s-156 -237.167 -156 -394.5z" />
    <glyph glyph-name="Ugrave" unicode="&#xd9;" horiz-adv-x="1490" 
d="M176 512l0.000976562 934h203v-934c0 -109.333 32.667 -195 98 -257s154 -93 266 -93c113.333 0 203.166 31 269.499 93s99.5 149 99.5 261v930h203v-934c0 -160 -52.667 -289.5 -158 -388.5s-242.5 -148.5 -411.5 -148.5s-306.167 49.5 -411.5 148.5
s-158 228.5 -158 388.5zM666.001 1546l-195 260h213l150 -260h-168z" />
    <glyph glyph-name="Uacute" unicode="&#xda;" horiz-adv-x="1490" 
d="M176 512l0.000976562 934h203v-934c0 -109.333 32.667 -195 98 -257s154 -93 266 -93c113.333 0 203.166 31 269.499 93s99.5 149 99.5 261v930h203v-934c0 -160 -52.667 -289.5 -158 -388.5s-242.5 -148.5 -411.5 -148.5s-306.167 49.5 -411.5 148.5
s-158 228.5 -158 388.5zM655.001 1546l150 260h213l-197 -260h-166z" />
    <glyph glyph-name="Ucircumflex" unicode="&#xdb;" horiz-adv-x="1490" 
d="M176 512l0.000976562 934h203v-934c0 -109.333 32.667 -195 98 -257s154 -93 266 -93c113.333 0 203.166 31 269.499 93s99.5 149 99.5 261v930h203v-934c0 -160 -52.667 -289.5 -158 -388.5s-242.5 -148.5 -411.5 -148.5s-306.167 49.5 -411.5 148.5
s-158 228.5 -158 388.5zM461.001 1546l180 260h207l180 -260h-174l-109 164h-4l-106 -164h-174z" />
    <glyph glyph-name="Udieresis" unicode="&#xdc;" horiz-adv-x="1490" 
d="M176 512l0.000976562 934h203v-934c0 -109.333 32.667 -195 98 -257s154 -93 266 -93c113.333 0 203.166 31 269.499 93s99.5 149 99.5 261v930h203v-934c0 -160 -52.667 -289.5 -158 -388.5s-242.5 -148.5 -411.5 -148.5s-306.167 49.5 -411.5 148.5
s-158 228.5 -158 388.5zM836.001 1599v207h163v-207h-163zM494.001 1599v207h163v-207h-163z" />
    <glyph glyph-name="Yacute" unicode="&#xdd;" horiz-adv-x="1204" 
d="M502 0v612l-486 834h230l268 -475l88 -183h4c28.667 66.667 58 127.667 88 183l264 475h230l-483 -834v-612h-203zM514 1546l150 260h213l-197 -260h-166z" />
    <glyph glyph-name="Thorn" unicode="&#xde;" horiz-adv-x="1243" 
d="M197 0v1446h200v-246h328c134 0 243 -41.333 327 -124s126 -192.167 126 -328.5s-42.333 -246.833 -127 -331.5s-194 -127 -328 -127h-326v-289h-200zM397 465h295c87.333 0 156 25.167 206 75.5s75 119.5 75 207.5c0 86 -25 153.5 -75 202.5s-118 73.5 -204 73.5h-297
v-559z" />
    <glyph glyph-name="germandbls" unicode="&#xdf;" horiz-adv-x="1204" 
d="M156 0l0.00195312 1085c0 120 43.667 214.167 131 282.5s191 102.5 311 102.5c112 0 204.833 -31.667 278.5 -95s110.5 -141.333 110.5 -234c0 -45.333 -10.5 -87.5 -31.5 -126.5s-44.5 -70 -70.5 -93s-49.667 -48.833 -71 -77.5s-32 -56.667 -32 -84
c0 -23.333 12.667 -47.333 38 -72s56.166 -49.167 92.499 -73.5s72.166 -50.5 107.499 -78.5s65.666 -62.833 90.999 -104.5s38 -86.5 38 -134.5c0 -98 -34.167 -174.333 -102.5 -229s-150.833 -82 -247.5 -82c-56 0 -108.333 4.66699 -157 14s-83 19 -103 29l-31 16v176
c76.667 -42 165.334 -63 266.001 -63c49.333 0 90.333 12.167 123 36.5s49 61.166 49 110.499c0 36.667 -19.167 73.167 -57.5 109.5s-80.333 67.833 -126 94.5s-87.5 61.834 -125.5 105.501s-57 90.167 -57 139.5c0 38 10.833 74.833 32.5 110.5s45.167 65.334 70.5 89.001
s48.833 52.334 70.5 86.001s32.5 66.834 32.5 99.501c0 44 -17 81.5 -51 112.5s-81.667 46.5 -143 46.5c-65.333 0 -121.333 -19.667 -168 -59s-70 -95.333 -70 -168v-1071h-198z" />
    <glyph glyph-name="agrave" unicode="&#xe0;" horiz-adv-x="1081" 
d="M72 291c0 237.333 208 355.997 624 355.997h45v19c0 151.333 -75.667 227 -227 227c-104 -1.33301 -200.333 -34.666 -289 -99.999l-82 145c10.667 9.33301 26.667 20.833 48 34.5s65.5 31.834 132.5 54.501s135.833 34 206.5 34c131.333 0 232.5 -34.833 303.5 -104.5
s106.5 -170.167 106.5 -301.5v-655h-184v98l4 82h-4l-12 -22c-4.66699 -9.33301 -16.167 -25.666 -34.5 -48.999s-38.833 -44 -61.5 -62s-54 -34.5 -94 -49.5s-83.333 -22.5 -130 -22.5c-95.333 0 -177.833 28.167 -247.5 84.5s-104.5 133.5 -104.5 231.5zM272 300.997
c0 -45.333 17.1689 -84.333 51.502 -117s82.166 -49 143.499 -49c79.333 0 145.166 34.5 197.499 103.5s78.5 144.5 78.5 226.5v33h-51c-280 0 -420 -65.667 -420 -197zM459.002 1186l-195 260h213l150 -260h-168z" />
    <glyph glyph-name="aacute" unicode="&#xe1;" horiz-adv-x="1081" 
d="M72 291c0 237.333 208 355.997 624 355.997h45v19c0 151.333 -75.667 227 -227 227c-104 -1.33301 -200.333 -34.666 -289 -99.999l-82 145c10.667 9.33301 26.667 20.833 48 34.5s65.5 31.834 132.5 54.501s135.833 34 206.5 34c131.333 0 232.5 -34.833 303.5 -104.5
s106.5 -170.167 106.5 -301.5v-655h-184v98l4 82h-4l-12 -22c-4.66699 -9.33301 -16.167 -25.666 -34.5 -48.999s-38.833 -44 -61.5 -62s-54 -34.5 -94 -49.5s-83.333 -22.5 -130 -22.5c-95.333 0 -177.833 28.167 -247.5 84.5s-104.5 133.5 -104.5 231.5zM272 300.997
c0 -45.333 17.1689 -84.333 51.502 -117s82.166 -49 143.499 -49c79.333 0 145.166 34.5 197.499 103.5s78.5 144.5 78.5 226.5v33h-51c-280 0 -420 -65.667 -420 -197zM446.002 1186l150 260h213l-197 -260h-166z" />
    <glyph glyph-name="acircumflex" unicode="&#xe2;" horiz-adv-x="1081" 
d="M72 291c0 237.333 208 355.997 624 355.997h45v19c0 151.333 -75.667 227 -227 227c-104 -1.33301 -200.333 -34.666 -289 -99.999l-82 145c10.667 9.33301 26.667 20.833 48 34.5s65.5 31.834 132.5 54.501s135.833 34 206.5 34c131.333 0 232.5 -34.833 303.5 -104.5
s106.5 -170.167 106.5 -301.5v-655h-184v98l4 82h-4l-12 -22c-4.66699 -9.33301 -16.167 -25.666 -34.5 -48.999s-38.833 -44 -61.5 -62s-54 -34.5 -94 -49.5s-83.333 -22.5 -130 -22.5c-95.333 0 -177.833 28.167 -247.5 84.5s-104.5 133.5 -104.5 231.5zM272 300.997
c0 -45.333 17.1689 -84.333 51.502 -117s82.166 -49 143.499 -49c79.333 0 145.166 34.5 197.499 103.5s78.5 144.5 78.5 226.5v33h-51c-280 0 -420 -65.667 -420 -197zM252.002 1186l180 260h207l180 -260h-174l-108 164h-5l-106 -164h-174z" />
    <glyph glyph-name="atilde" unicode="&#xe3;" horiz-adv-x="1081" 
d="M72 291c0 237.333 208 355.997 624 355.997h45v19c0 151.333 -75.667 227 -227 227c-104 -1.33301 -200.333 -34.666 -289 -99.999l-82 145c10.667 9.33301 26.667 20.833 48 34.5s65.5 31.834 132.5 54.501s135.833 34 206.5 34c131.333 0 232.5 -34.833 303.5 -104.5
s106.5 -170.167 106.5 -301.5v-655h-184v98l4 82h-4l-12 -22c-4.66699 -9.33301 -16.167 -25.666 -34.5 -48.999s-38.833 -44 -61.5 -62s-54 -34.5 -94 -49.5s-83.333 -22.5 -130 -22.5c-95.333 0 -177.833 28.167 -247.5 84.5s-104.5 133.5 -104.5 231.5zM272 300.997
c0 -45.333 17.1689 -84.333 51.502 -117s82.166 -49 143.499 -49c79.333 0 145.166 34.5 197.499 103.5s78.5 144.5 78.5 226.5v33h-51c-280 0 -420 -65.667 -420 -197zM193.002 1188c0 173.333 69.3301 260 207.997 260c39.333 0 74.166 -11.667 104.499 -35
s57.833 -46.5 82.5 -69.5s48.334 -34.5 71.001 -34.5c27.333 0 47.5 13.333 60.5 40s19.5 57.667 19.5 93h144c0 -173.333 -69.667 -260 -209 -260c-39.333 0 -74.166 11.5 -104.499 34.5s-57.666 46.167 -81.999 69.5s-48.166 35 -71.499 35
c-53.333 0 -80 -44.333 -80 -133h-143z" />
    <glyph glyph-name="adieresis" unicode="&#xe4;" horiz-adv-x="1081" 
d="M72 291c0 237.333 208 355.997 624 355.997h45v19c0 151.333 -75.667 227 -227 227c-104 -1.33301 -200.333 -34.666 -289 -99.999l-82 145c10.667 9.33301 26.667 20.833 48 34.5s65.5 31.834 132.5 54.501s135.833 34 206.5 34c131.333 0 232.5 -34.833 303.5 -104.5
s106.5 -170.167 106.5 -301.5v-655h-184v98l4 82h-4l-12 -22c-4.66699 -9.33301 -16.167 -25.666 -34.5 -48.999s-38.833 -44 -61.5 -62s-54 -34.5 -94 -49.5s-83.333 -22.5 -130 -22.5c-95.333 0 -177.833 28.167 -247.5 84.5s-104.5 133.5 -104.5 231.5zM272 300.997
c0 -45.333 17.1689 -84.333 51.502 -117s82.166 -49 143.499 -49c79.333 0 145.166 34.5 197.499 103.5s78.5 144.5 78.5 226.5v33h-51c-280 0 -420 -65.667 -420 -197zM627.002 1239v207h164v-207h-164zM285.002 1239v207h164v-207h-164z" />
    <glyph glyph-name="aring" unicode="&#xe5;" horiz-adv-x="1081" 
d="M72 291c0 237.333 208 355.997 624 355.997h45v19c0 151.333 -75.667 227 -227 227c-104 -1.33301 -200.333 -34.666 -289 -99.999l-82 145c10.667 9.33301 26.667 20.833 48 34.5s65.5 31.834 132.5 54.501s135.833 34 206.5 34c131.333 0 232.5 -34.833 303.5 -104.5
s106.5 -170.167 106.5 -301.5v-655h-184v98l4 82h-4l-12 -22c-4.66699 -9.33301 -16.167 -25.666 -34.5 -48.999s-38.833 -44 -61.5 -62s-54 -34.5 -94 -49.5s-83.333 -22.5 -130 -22.5c-95.333 0 -177.833 28.167 -247.5 84.5s-104.5 133.5 -104.5 231.5zM272 300.997
c0 -45.333 17.1689 -84.333 51.502 -117s82.166 -49 143.499 -49c79.333 0 145.166 34.5 197.499 103.5s78.5 144.5 78.5 226.5v33h-51c-280 0 -420 -65.667 -420 -197zM536.502 1161c-47.667 0 -88.667 13.999 -123 41.999s-51.5 64.667 -51.5 110
c0 46.667 17.167 83.834 51.5 111.501s75.333 41.5 123 41.5s88.667 -14 123 -42s51.5 -65 51.5 -111c0 -45.333 -17.167 -82 -51.5 -110s-75.333 -42 -123 -42zM537.002 1245c19.333 0 35.333 6.5 48 19.5s19 29.167 19 48.5c0 22 -6.5 39.333 -19.5 52
s-28.833 19 -47.5 19c-20.667 0 -37.167 -6.33301 -49.5 -19s-18.5 -30 -18.5 -52c0 -19.333 6.16699 -35.5 18.5 -48.5s28.833 -19.5 49.5 -19.5z" />
    <glyph glyph-name="ae" unicode="&#xe6;" horiz-adv-x="1769" 
d="M74 291c0 61.333 15 114.834 45 160.501s66.5 80.5 109.5 104.5s94.833 43.5 155.5 58.5s114.167 24.167 160.5 27.5s95.5 5 147.5 5h51v19c0 151.333 -77.667 227 -233 227c-46.667 0 -93.5 -8.16699 -140.5 -24.5s-82.833 -32.833 -107.5 -49.5l-37 -26l-80 145
c4 2.66699 9.83301 7.16699 17.5 13.5s23.834 16.166 48.501 29.499s50.667 25.5 78 36.5s62.5 21 105.5 30s86.167 13.5 129.5 13.5c173.333 0 288 -60.667 344 -182h4c82 121.333 208.333 182 379 182c135.333 0 241.166 -47.5 317.499 -142.5s114.5 -215.5 114.5 -361.5
l-4 -59h-743c5.33301 -113.333 39.833 -200.166 103.5 -260.499s143.834 -90.5 240.501 -90.5c53.333 0 105.5 10 156.5 30s88.833 40.333 113.5 61l37 28l82 -143c-10.667 -10.667 -27 -24.334 -49 -41.001s-67.833 -38.667 -137.5 -66s-140.5 -41 -212.5 -41
c-102.667 0 -192.167 23 -268.5 69s-135.833 110 -178.5 192h-4c-6.66699 -19.333 -17.5 -41 -32.5 -65s-37.5 -52 -67.5 -84s-70.333 -58.667 -121 -80s-107.334 -32 -170.001 -32c-100 0 -184 28.5 -252 85.5s-102 133.833 -102 230.5zM944 647.001h539.001
c-2.66699 83.333 -27.334 146.833 -74.001 190.5s-104 65.5 -172 65.5c-78 0 -143 -21.5 -195 -64.5s-84.667 -106.833 -98 -191.5zM276.001 301.001c0 -46.667 16.832 -86 50.499 -118s81.834 -48 144.501 -48c80.667 0 146.5 34.5 197.5 103.5s76.5 145.167 76.5 228.5v31
h-96c-248.667 0 -373 -65.667 -373 -197z" />
    <glyph glyph-name="ccedilla" unicode="&#xe7;" horiz-adv-x="1122" 
d="M84 518c0 154 52.168 283.003 156.501 387.003s237.166 156 398.499 156c76.667 0 147.334 -12.667 212.001 -38s110 -51 136 -77l41 -37l-94 -139c-8 8 -20 18.833 -36 32.5s-48.833 31.5 -98.5 53.5s-100.5 33 -152.5 33c-104 0 -190 -34.833 -258 -104.5
s-102 -157.834 -102 -264.501s34.5 -195.5 103.5 -266.5s156.5 -106.5 262.5 -106.5c57.333 0 112.666 11.667 165.999 35s92.333 46.666 117 69.999l37 35l80 -146l-17 -16c-6.66699 -6.66699 -22.334 -19.334 -47.001 -38.001s-51 -35.167 -79 -49.5
s-64.167 -28 -108.5 -41s-90.166 -20.167 -137.499 -21.5l-17 -77c44 -5.33301 79.667 -21 107 -47s41 -60.333 41 -103c0 -58.667 -20.167 -102 -60.5 -130s-89.833 -42 -148.5 -42l-113 14v119c27.333 -9.33301 56 -14 86 -14c65.333 0 98 21.167 98 63.5
s-36 63.5 -108 63.5l-37 -2l41 162c-139.333 19.333 -252.333 78 -339 176s-130 218 -130 360z" />
    <glyph glyph-name="egrave" unicode="&#xe8;" horiz-adv-x="1136" 
d="M84 518c0 162.667 48.8311 293.835 146.498 393.502s221.5 149.5 371.5 149.5c140.667 0 250.667 -45.833 330 -137.5s119 -207.834 119 -348.501l-7 -86h-755c5.33301 -109.333 41.833 -193.666 109.5 -252.999s149.834 -89 246.501 -89c109.333 0 209 38.333 299 115
l8 6l82 -145c-10.667 -10.667 -27 -24.334 -49 -41.001s-67.833 -38.667 -137.5 -66s-141.167 -41 -214.5 -41c-161.333 0 -293.166 51.667 -395.499 155s-153.5 232.666 -153.5 387.999zM294.998 639.001l552.998 -0.000976562c-2.66699 86 -27.667 151.5 -75 196.5
s-105.666 67.5 -174.999 67.5c-78 0 -144.667 -23.167 -200 -69.5s-89.666 -111.166 -102.999 -194.499zM523.996 1186l-194 260h213l149 -260h-168z" />
    <glyph glyph-name="eacute" unicode="&#xe9;" horiz-adv-x="1136" 
d="M84 518c0 162.667 48.8311 293.835 146.498 393.502s221.5 149.5 371.5 149.5c140.667 0 250.667 -45.833 330 -137.5s119 -207.834 119 -348.501l-7 -86h-755c5.33301 -109.333 41.833 -193.666 109.5 -252.999s149.834 -89 246.501 -89c109.333 0 209 38.333 299 115
l8 6l82 -145c-10.667 -10.667 -27 -24.334 -49 -41.001s-67.833 -38.667 -137.5 -66s-141.167 -41 -214.5 -41c-161.333 0 -293.166 51.667 -395.499 155s-153.5 232.666 -153.5 387.999zM294.998 639.001l552.998 -0.000976562c-2.66699 86 -27.667 151.5 -75 196.5
s-105.666 67.5 -174.999 67.5c-78 0 -144.667 -23.167 -200 -69.5s-89.666 -111.166 -102.999 -194.499zM513.996 1186l150 260h213l-197 -260h-166z" />
    <glyph glyph-name="ecircumflex" unicode="&#xea;" horiz-adv-x="1136" 
d="M84 518c0 162.667 48.8311 293.835 146.498 393.502s221.5 149.5 371.5 149.5c140.667 0 250.667 -45.833 330 -137.5s119 -207.834 119 -348.501l-7 -86h-755c5.33301 -109.333 41.833 -193.666 109.5 -252.999s149.834 -89 246.501 -89c109.333 0 209 38.333 299 115
l8 6l82 -145c-10.667 -10.667 -27 -24.334 -49 -41.001s-67.833 -38.667 -137.5 -66s-141.167 -41 -214.5 -41c-161.333 0 -293.166 51.667 -395.499 155s-153.5 232.666 -153.5 387.999zM294.998 639.001l552.998 -0.000976562c-2.66699 86 -27.667 151.5 -75 196.5
s-105.666 67.5 -174.999 67.5c-78 0 -144.667 -23.167 -200 -69.5s-89.666 -111.166 -102.999 -194.499zM316.996 1186l181 260h207l180 -260h-174l-109 164h-4l-106 -164h-175z" />
    <glyph glyph-name="edieresis" unicode="&#xeb;" horiz-adv-x="1136" 
d="M84 518c0 162.667 48.8311 293.835 146.498 393.502s221.5 149.5 371.5 149.5c140.667 0 250.667 -45.833 330 -137.5s119 -207.834 119 -348.501l-7 -86h-755c5.33301 -109.333 41.833 -193.666 109.5 -252.999s149.834 -89 246.501 -89c109.333 0 209 38.333 299 115
l8 6l82 -145c-10.667 -10.667 -27 -24.334 -49 -41.001s-67.833 -38.667 -137.5 -66s-141.167 -41 -214.5 -41c-161.333 0 -293.166 51.667 -395.499 155s-153.5 232.666 -153.5 387.999zM294.998 639.001l552.998 -0.000976562c-2.66699 86 -27.667 151.5 -75 196.5
s-105.666 67.5 -174.999 67.5c-78 0 -144.667 -23.167 -200 -69.5s-89.666 -111.166 -102.999 -194.499zM691.996 1239v207h164v-207h-164zM349.996 1239v207h164v-207h-164z" />
    <glyph glyph-name="igrave" unicode="&#xec;" horiz-adv-x="509" 
d="M176 1186l-194 260h213l149 -260h-168zM156 0v1036h198v-1036h-198z" />
    <glyph glyph-name="iacute" unicode="&#xed;" horiz-adv-x="509" 
d="M168 1186l149 260h213l-196 -260h-166zM156 0v1036h198v-1036h-198z" />
    <glyph glyph-name="icircumflex" unicode="&#xee;" horiz-adv-x="509" 
d="M156 0v1036h198v-1036h-198zM-27 1186l181 260h206l181 -260h-174l-109 164h-4l-107 -164h-174z" />
    <glyph glyph-name="idieresis" unicode="&#xef;" horiz-adv-x="509" 
d="M346 1239v207h164v-207h-164zM4 1239v207h164v-207h-164zM156 0v1036h198v-1036h-198z" />
    <glyph glyph-name="eth" unicode="&#xf0;" horiz-adv-x="1206" 
d="M88 481c0 128.667 43.332 239.668 129.999 333.001s205 140 355 140c105.333 -1.33301 189.333 -30 252 -86h4c-40.667 109.333 -115 200.333 -223 273l-370 -164l-21 127l254 113c-83.333 42 -171.333 73.333 -264 94l55 162c158.667 -35.333 300 -90 424 -164l285 125
l18 -125l-188 -86c196.667 -164 295 -384 295 -660c0 -72.667 -10 -142.334 -30 -209.001s-49.833 -129 -89.5 -187s-94.167 -104.5 -163.5 -139.5s-148.666 -52.5 -237.999 -52.5c-148.667 0 -266.667 50.167 -354 150.5s-131 218.833 -131 355.5zM288.999 477.001
c0 -90 25.501 -167.501 76.501 -232.501s121.833 -97.5 212.5 -97.5c53.333 0 100.666 11.333 141.999 34s74 53.167 98 91.5s42.167 79 54.5 122s18.5 87.5 18.5 133.5c0 78 -26.333 142 -79 192s-122.667 75 -210 75c-100 0 -177.167 -31.167 -231.5 -93.5
s-81.5 -137.166 -81.5 -224.499z" />
    <glyph glyph-name="ntilde" unicode="&#xf1;" horiz-adv-x="1234" 
d="M156 0l-0.000976562 1036h192v-137l-4 -76h4c27.333 58.667 73.833 113 139.5 163s148.834 75 249.501 75c237.333 0 356.333 -132.333 357 -397v-664h-199v618c0 83.333 -13.667 147.666 -41 192.999s-79.333 68 -156 68c-78 0 -146.667 -23.667 -206 -71
s-99.666 -108.333 -120.999 -183c-10.667 -36.667 -16.334 -83.334 -17.001 -140.001v-485h-198zM296.999 1188c0 173.333 69.667 260 209 260c39.333 0 74 -11.667 104 -35s57.333 -46.5 82 -69.5s48.667 -34.5 72 -34.5c27.333 0 47.5 13.333 60.5 40s19.5 57.667 19.5 93
h143c0 -173.333 -69.667 -260 -209 -260c-39.333 0 -74 11.5 -104 34.5s-57.333 46.167 -82 69.5s-48.667 35 -72 35c-53.333 0 -80 -44.333 -80 -133h-143z" />
    <glyph glyph-name="ograve" unicode="&#xf2;" horiz-adv-x="1277" 
d="M80 520.5c0 155.667 53.833 284.667 161.5 387s240 153.5 397 153.5s289.5 -51.167 397.5 -153.5s162 -231.333 162 -387s-54.333 -285.5 -163 -389.5s-240.667 -156 -396 -156s-287.333 52 -396 156s-163 233.833 -163 389.5zM283 520
c0 -106.667 34.833 -195.5 104.5 -266.5s153.5 -106.5 251.5 -106.5c100 0 184.333 35.167 253 105.5s103 159.5 103 267.5c0 106.667 -34.5 194.834 -103.5 264.501s-153.167 104.5 -252.5 104.5c-98 0 -181.833 -34.833 -251.5 -104.5s-104.5 -157.834 -104.5 -264.501z
M559 1186l-194 260h213l149 -260h-168z" />
    <glyph glyph-name="oacute" unicode="&#xf3;" horiz-adv-x="1277" 
d="M80 520.5c0 155.667 53.833 284.667 161.5 387s240 153.5 397 153.5s289.5 -51.167 397.5 -153.5s162 -231.333 162 -387s-54.333 -285.5 -163 -389.5s-240.667 -156 -396 -156s-287.333 52 -396 156s-163 233.833 -163 389.5zM283 520
c0 -106.667 34.833 -195.5 104.5 -266.5s153.5 -106.5 251.5 -106.5c100 0 184.333 35.167 253 105.5s103 159.5 103 267.5c0 106.667 -34.5 194.834 -103.5 264.501s-153.167 104.5 -252.5 104.5c-98 0 -181.833 -34.833 -251.5 -104.5s-104.5 -157.834 -104.5 -264.501z
M551 1186l149 260h213l-196 -260h-166z" />
    <glyph glyph-name="ocircumflex" unicode="&#xf4;" horiz-adv-x="1277" 
d="M80 520.5c0 155.667 53.833 284.667 161.5 387s240 153.5 397 153.5s289.5 -51.167 397.5 -153.5s162 -231.333 162 -387s-54.333 -285.5 -163 -389.5s-240.667 -156 -396 -156s-287.333 52 -396 156s-163 233.833 -163 389.5zM283 520
c0 -106.667 34.833 -195.5 104.5 -266.5s153.5 -106.5 251.5 -106.5c100 0 184.333 35.167 253 105.5s103 159.5 103 267.5c0 106.667 -34.5 194.834 -103.5 264.501s-153.167 104.5 -252.5 104.5c-98 0 -181.833 -34.833 -251.5 -104.5s-104.5 -157.834 -104.5 -264.501z
M356 1186l181 260h206l181 -260h-174l-109 164h-4l-107 -164h-174z" />
    <glyph glyph-name="otilde" unicode="&#xf5;" horiz-adv-x="1277" 
d="M80 520.5c0 155.667 53.833 284.667 161.5 387s240 153.5 397 153.5s289.5 -51.167 397.5 -153.5s162 -231.333 162 -387s-54.333 -285.5 -163 -389.5s-240.667 -156 -396 -156s-287.333 52 -396 156s-163 233.833 -163 389.5zM283 520
c0 -106.667 34.833 -195.5 104.5 -266.5s153.5 -106.5 251.5 -106.5c100 0 184.333 35.167 253 105.5s103 159.5 103 267.5c0 106.667 -34.5 194.834 -103.5 264.501s-153.167 104.5 -252.5 104.5c-98 0 -181.833 -34.833 -251.5 -104.5s-104.5 -157.834 -104.5 -264.501z
M295 1188c0 173.333 69.667 260 209 260c39.333 0 74 -11.667 104 -35s57.333 -46.5 82 -69.5s48.667 -34.5 72 -34.5c27.333 0 47.5 13.333 60.5 40s19.5 57.667 19.5 93h143c0 -173.333 -69.667 -260 -209 -260c-39.333 0 -74 11.5 -104 34.5s-57.333 46.167 -82 69.5
s-48.667 35 -72 35c-53.333 0 -80 -44.333 -80 -133h-143z" />
    <glyph glyph-name="odieresis" unicode="&#xf6;" horiz-adv-x="1277" 
d="M80 520.5c0 155.667 53.833 284.667 161.5 387s240 153.5 397 153.5s289.5 -51.167 397.5 -153.5s162 -231.333 162 -387s-54.333 -285.5 -163 -389.5s-240.667 -156 -396 -156s-287.333 52 -396 156s-163 233.833 -163 389.5zM283 520
c0 -106.667 34.833 -195.5 104.5 -266.5s153.5 -106.5 251.5 -106.5c100 0 184.333 35.167 253 105.5s103 159.5 103 267.5c0 106.667 -34.5 194.834 -103.5 264.501s-153.167 104.5 -252.5 104.5c-98 0 -181.833 -34.833 -251.5 -104.5s-104.5 -157.834 -104.5 -264.501z
M729 1239v207h164v-207h-164zM387 1239v207h164v-207h-164z" />
    <glyph glyph-name="divide" unicode="&#xf7;" horiz-adv-x="1300" 
d="M553 891v186h192v-186h-192zM133 504v160h1034v-160h-1034zM553 90v186h192v-186h-192z" />
    <glyph glyph-name="oslash" unicode="&#xf8;" horiz-adv-x="1277" 
d="M80 520c0 155.333 53.832 284.332 161.499 386.999s240.167 154 397.5 154c98 0 190 -22.667 276 -68l82 113l97 -70l-80 -110c122.667 -105.333 184 -240.666 184 -405.999c0 -155.333 -54.333 -285 -163 -389s-240.667 -156 -396 -156
c-91.333 0 -178.666 20 -261.999 60l-80 -113l-98 72l75 106c-129.333 105.333 -194 245.333 -194 420zM282.999 519.999c0 -106.667 34 -195.332 102 -265.999l426 592c-54.667 28.667 -112 43 -172 43c-98 0 -181.833 -34.833 -251.5 -104.5
s-104.5 -157.834 -104.5 -264.501zM994.999 520.001c0 98 -30.667 181.333 -92 250l-420 -588c49.333 -23.333 101.333 -35 156 -35c100 0 184.333 35.167 253 105.5s103 159.5 103 267.5z" />
    <glyph glyph-name="ugrave" unicode="&#xf9;" horiz-adv-x="1224" 
d="M141 373v662.998h199v-618c0 -83.333 13.333 -147.166 40 -191.499s78.334 -66.5 155.001 -66.5c101.333 0 182.5 38.167 243.5 114.5s91.5 168.5 91.5 276.5v485h199v-1036h-192v137l4 76h-4c-26 -60 -72.833 -114.667 -140.5 -164s-147.834 -74 -240.501 -74
c-236.667 0.666992 -355 133.334 -355 398.001zM526 1186l-194 260h213l149 -260h-168z" />
    <glyph glyph-name="uacute" unicode="&#xfa;" horiz-adv-x="1224" 
d="M141 373v662.998h199v-618c0 -83.333 13.333 -147.166 40 -191.499s78.334 -66.5 155.001 -66.5c101.333 0 182.5 38.167 243.5 114.5s91.5 168.5 91.5 276.5v485h199v-1036h-192v137l4 76h-4c-26 -60 -72.833 -114.667 -140.5 -164s-147.834 -74 -240.501 -74
c-236.667 0.666992 -355 133.334 -355 398.001zM516 1186l150 260h213l-197 -260h-166z" />
    <glyph glyph-name="ucircumflex" unicode="&#xfb;" horiz-adv-x="1224" 
d="M141 373v662.998h199v-618c0 -83.333 13.333 -147.166 40 -191.499s78.334 -66.5 155.001 -66.5c101.333 0 182.5 38.167 243.5 114.5s91.5 168.5 91.5 276.5v485h199v-1036h-192v137l4 76h-4c-26 -60 -72.833 -114.667 -140.5 -164s-147.834 -74 -240.501 -74
c-236.667 0.666992 -355 133.334 -355 398.001zM322 1186l180 260h207l180 -260h-174l-109 164h-4l-106 -164h-174z" />
    <glyph glyph-name="udieresis" unicode="&#xfc;" horiz-adv-x="1224" 
d="M141 373v662.998h199v-618c0 -83.333 13.333 -147.166 40 -191.499s78.334 -66.5 155.001 -66.5c101.333 0 182.5 38.167 243.5 114.5s91.5 168.5 91.5 276.5v485h199v-1036h-192v137l4 76h-4c-26 -60 -72.833 -114.667 -140.5 -164s-147.834 -74 -240.501 -74
c-236.667 0.666992 -355 133.334 -355 398.001zM696 1239v207h164v-207h-164zM354 1239v207h164v-207h-164z" />
    <glyph glyph-name="yacute" unicode="&#xfd;" horiz-adv-x="1044" 
d="M10 -367l69.998 152c38 -28.667 78.333 -43 121 -43c82 0 144 50.667 186 152l51 118l-434 1024h223l260 -678l39 -125h4c10.667 46.667 22.334 87.667 35.001 123l252 680h215l-485 -1222c-31.333 -78 -76.666 -138.167 -135.999 -180.5s-126 -63.5 -200 -63.5
c-34 0 -67.833 5.5 -101.5 16.5s-58.5 21.833 -74.5 32.5zM439.998 1186l150 260h213l-197 -260h-166z" />
    <glyph glyph-name="thorn" unicode="&#xfe;" horiz-adv-x="1228" 
d="M156 -410l-0.000976562 1856h198v-471l-2 -86h4c1.33301 1.33301 7.66602 8.66602 18.999 21.999l29 36c8.66699 10 23 22.667 43 38s40.333 28 61 38s46.334 18.833 77.001 26.5s63 11.5 97 11.5c139.333 0 251 -50.5 335 -151.5s126 -231.333 126 -391
s-43.333 -290.167 -130 -391.5s-199 -152 -337 -152c-44 0 -85.333 5.83301 -124 17.5s-69.667 26 -93 43s-43.166 33.833 -59.499 50.5s-27.833 30.334 -34.5 41.001l-11 18h-4c2.66699 -24.667 4 -54.667 4 -90v-465h-198zM347.999 516
c0 -108 26.999 -196.5 80.999 -265.5s126 -103.5 216 -103.5c84.667 0 155 34.167 211 102.5s84 157.833 84 268.5c0 109.333 -26.667 198.5 -80 267.5s-123.666 103.5 -210.999 103.5c-86 0 -157.667 -30.833 -215 -92.5s-86 -155.167 -86 -280.5z" />
    <glyph glyph-name="ydieresis" unicode="&#xff;" horiz-adv-x="1044" 
d="M10 -367l69.998 152c38 -28.667 78.333 -43 121 -43c82 0 144 50.667 186 152l51 118l-434 1024h223l260 -678l39 -125h4c10.667 46.667 22.334 87.667 35.001 123l252 680h215l-485 -1222c-31.333 -78 -76.666 -138.167 -135.999 -180.5s-126 -63.5 -200 -63.5
c-34 0 -67.833 5.5 -101.5 16.5s-58.5 21.833 -74.5 32.5zM617.998 1239v207h164v-207h-164zM275.998 1239v207h164v-207h-164z" />
    <glyph glyph-name="OE" unicode="&#x152;" horiz-adv-x="1966" 
d="M98 725c0 208.667 71.334 384 214.001 526s320.667 213 534 213c35.333 0 80.666 -3 135.999 -9s94 -9 116 -9h733v-176h-639v-453h520v-176h-520v-465h676v-176h-768c-22 0 -61 -3 -117 -9s-101.667 -9 -137 -9c-211.333 0 -388.833 71.333 -532.5 214
s-215.5 319 -215.5 529zM307.001 725c0 -161.333 50.498 -296.167 151.498 -404.5s230.167 -162.5 387.5 -162.5c24.667 0 48.834 1 72.501 3s41.834 4.33301 54.501 7l18 4v1102c-42 10.667 -90.333 16 -145 16c-157.333 0 -286.5 -54.167 -387.5 -162.5
s-151.5 -242.5 -151.5 -402.5z" />
    <glyph glyph-name="oe" unicode="&#x153;" horiz-adv-x="2048" 
d="M82 516c0 160 53.502 290.834 160.502 392.501s237.833 152.5 392.5 152.5c200.667 0 350 -82 448 -246h4c87.333 164 229.333 246 426 246c140.667 0 250.667 -45.833 330 -137.5s119 -207.834 119 -348.501l-6 -86h-756c8 -109.333 45.5 -193.666 112.5 -252.999
s148.167 -89 243.5 -89c109.333 0 209 38.333 299 115l9 6l82 -145c-10.667 -10.667 -27 -24.334 -49 -41.001s-67.833 -38.667 -137.5 -66s-141.5 -41 -215.5 -41c-208.667 0 -359.334 84 -452.001 252h-5c-96.667 -168 -247.334 -252 -452.001 -252
c-154 0 -284.667 50.167 -392 150.5s-161 230.5 -161 390.5zM1206 639.001l552.998 -0.00195312c-2.66699 84.667 -27.167 149.834 -73.5 195.501s-104.5 68.5 -174.5 68.5c-79.333 0 -146.666 -23.167 -201.999 -69.5s-89.666 -111.166 -102.999 -194.499zM285 515.999
c0 -109.333 34 -198.167 102 -266.5s151.833 -102.5 251.5 -102.5s184 34.5 253 103.5s103.5 159.5 103.5 271.5c0 108 -34.833 196.167 -104.5 264.5s-153.5 102.5 -251.5 102.5s-181.5 -34.5 -250.5 -103.5s-103.5 -158.833 -103.5 -269.5z" />
    <glyph glyph-name="Ydieresis" unicode="&#x178;" horiz-adv-x="1204" 
d="M502 0v612l-486 834h230l268 -475l88 -183h4c28.667 66.667 58 127.667 88 183l264 475h230l-483 -834v-612h-203zM686 1599v207h164v-207h-164zM344 1599v207h164v-207h-164z" />
    <glyph glyph-name="circumflex" unicode="&#x2c6;" horiz-adv-x="1021" 
d="M227 1546l181 260h206l181 -260h-174l-109 164h-4l-107 -164h-174z" />
    <glyph glyph-name="tilde" unicode="&#x2dc;" horiz-adv-x="1021" 
d="M166 1548c0 173.333 69.667 260 209 260c39.333 0 74 -11.5 104 -34.5s57.333 -46.167 82 -69.5s48.667 -35 72 -35c27.333 0 47.5 13.333 60.5 40s19.5 57.667 19.5 93h143c0 -173.333 -69.667 -260 -209 -260c-39.333 0 -74 11.667 -104 35s-57.333 46.5 -82 69.5
s-48.667 34.5 -72 34.5c-53.333 0 -80 -44.333 -80 -133h-143z" />
    <glyph glyph-name="uni2000" unicode="&#x2000;" horiz-adv-x="913" 
 />
    <glyph glyph-name="uni2001" unicode="&#x2001;" horiz-adv-x="1826" 
 />
    <glyph glyph-name="uni2002" unicode="&#x2002;" horiz-adv-x="913" 
 />
    <glyph glyph-name="uni2003" unicode="&#x2003;" horiz-adv-x="1826" 
 />
    <glyph glyph-name="uni2004" unicode="&#x2004;" horiz-adv-x="608" 
 />
    <glyph glyph-name="uni2005" unicode="&#x2005;" horiz-adv-x="456" 
 />
    <glyph glyph-name="uni2006" unicode="&#x2006;" horiz-adv-x="303" 
 />
    <glyph glyph-name="uni2007" unicode="&#x2007;" horiz-adv-x="303" 
 />
    <glyph glyph-name="uni2008" unicode="&#x2008;" horiz-adv-x="227" 
 />
    <glyph glyph-name="uni2009" unicode="&#x2009;" horiz-adv-x="364" 
 />
    <glyph glyph-name="uni200A" unicode="&#x200a;" horiz-adv-x="100" 
 />
    <glyph glyph-name="uni2010" unicode="&#x2010;" horiz-adv-x="966" 
d="M184 496v176h598v-176h-598z" />
    <glyph glyph-name="uni2011" unicode="&#x2011;" horiz-adv-x="966" 
d="M184 496v176h598v-176h-598z" />
    <glyph glyph-name="figuredash" unicode="&#x2012;" horiz-adv-x="966" 
d="M184 496v176h598v-176h-598z" />
    <glyph glyph-name="endash" unicode="&#x2013;" horiz-adv-x="1445" 
d="M184 504v160h1078v-160h-1078z" />
    <glyph glyph-name="emdash" unicode="&#x2014;" horiz-adv-x="1855" 
d="M184 504v160h1487v-160h-1487z" />
    <glyph glyph-name="quoteleft" unicode="&#x2018;" horiz-adv-x="464" 
d="M100 1069l136 399h145l-88 -399h-193z" />
    <glyph glyph-name="quoteright" unicode="&#x2019;" horiz-adv-x="448" 
d="M104 1071l89 399h192l-133 -399h-148z" />
    <glyph glyph-name="quotesinglbase" unicode="&#x201a;" horiz-adv-x="499" 
d="M86 -184l88 399h186l-133 -399h-141z" />
    <glyph glyph-name="quotedblleft" unicode="&#x201c;" horiz-adv-x="755" 
d="M389 1069l135 399h148l-88 -399h-195zM100 1069l136 399h147l-88 -399h-195z" />
    <glyph glyph-name="quotedblright" unicode="&#x201d;" horiz-adv-x="737" 
d="M393 1071l88 399h195l-133 -399h-150zM104 1071l89 399h194l-135 -399h-148z" />
    <glyph glyph-name="quotedblbase" unicode="&#x201e;" horiz-adv-x="784" 
d="M369 -184l88 399h188l-133 -399h-143zM86 -184l88 399h186l-133 -399h-141z" />
    <glyph glyph-name="bullet" unicode="&#x2022;" horiz-adv-x="841" 
d="M422 279c-87.333 0 -162.166 30.667 -224.499 92s-93.5 136.333 -93.5 225s31.167 163.667 93.5 225s137.166 92 224.499 92s161.666 -31 222.999 -93s92 -136.667 92 -224s-30.667 -162 -92 -224s-135.666 -93 -222.999 -93z" />
    <glyph glyph-name="ellipsis" unicode="&#x2026;" horiz-adv-x="1576" 
d="M1219 0v211h202v-211h-202zM686 0v211h205v-211h-205zM156 0v211h202v-211h-202z" />
    <glyph glyph-name="uni202F" unicode="&#x202f;" horiz-adv-x="364" 
 />
    <glyph glyph-name="guilsinglleft" unicode="&#x2039;" horiz-adv-x="727" 
d="M426 158l-336 420l336 421h199l-336 -421l336 -420h-199z" />
    <glyph glyph-name="guilsinglright" unicode="&#x203a;" horiz-adv-x="727" 
d="M102 158l336 420l-336 421h199l336 -421l-336 -420h-199z" />
    <glyph glyph-name="uni205F" unicode="&#x205f;" horiz-adv-x="456" 
 />
    <glyph glyph-name="Euro" unicode="&#x20ac;" horiz-adv-x="1210" 
d="M78 528v129.001h112c-5.33301 54.667 -5.33301 104 0 148h-112v131h137c40.667 157.333 124.5 285.666 251.5 384.999s273.833 149 440.5 149c34 0 68.167 -2 102.5 -6s60.166 -8 77.499 -12l27 -6l-49 -186c-50.667 15.333 -104.667 22.666 -162 21.999
c-113.333 0 -212 -31.333 -296 -94s-143 -146.667 -177 -252h576l-27 -131h-578c-8 -45.333 -8.66699 -94.666 -2 -147.999h553l-26 -129h-492c31.333 -108 90.333 -195 177 -261s186.667 -99 300 -99c30 0 60.833 2 92.5 6s54.834 8.66699 69.501 14l25 7l39 -185
c-65.333 -23.333 -142 -35 -230 -35c-172 0 -321.167 51 -447.5 153s-208.5 235.333 -246.5 400h-135z" />
    <glyph glyph-name="trademark" unicode="&#x2122;" horiz-adv-x="1925" 
d="M891 545l72 900.999h141l213 -471l29 -86h4c8 32.667 16.667 61.334 26 86.001l213 471h144l69 -901h-153l-43 538l2 62h-4l-195 -434h-125l-194 434h-5l2 -62l-43 -538h-153zM358 544.999v764h-311v137h778v-137h-311v-764h-156z" />
    <glyph glyph-name="uniE000" unicode="&#xe000;" horiz-adv-x="1035" 
d="M0 1035h1035v-1035h-1035v1035z" />
    <glyph glyph-name="uniFB01" unicode="&#xfb01;" horiz-adv-x="1198" 
d="M844 0l0.000976562 876.997h-436v-877h-197v877h-129v159h129v35c0 65.333 9.5 122.333 28.5 171s42.167 86.334 69.5 113.001s60.166 47.834 98.499 63.501s72.166 25.834 101.499 30.501s59.666 7 90.999 7l76 -6v-170c-13.333 2.66699 -30.333 4 -51 4
c-23.333 0 -45.666 -2.33301 -66.999 -7s-44.166 -13.834 -68.499 -27.501s-44 -36.167 -59 -67.5s-22.5 -69.666 -22.5 -114.999v-31h634v-1036h-198zM842.001 1243v203h200v-203h-200z" />
    <glyph glyph-name="uniFB02" unicode="&#xfb02;" horiz-adv-x="1230" 
d="M211 0l0.000976562 861.997h-129v160h129v49c0 65.333 9.5 122.333 28.5 171s42.167 86.334 69.5 113.001s60.166 47.834 98.499 63.501s72.166 25.834 101.499 30.501s59.666 7 90.999 7l76 -6v-170c-13.333 2.66699 -30.333 4 -51 4
c-23.333 0 -45.666 -2.33301 -66.999 -7s-44.166 -13.834 -68.499 -27.501s-44 -36.167 -59 -67.5s-22.5 -69.666 -22.5 -114.999v-45h245v-160h-245v-862h-197zM831.001 282.997v1163h199v-1129c0 -57.333 9.5 -96.166 28.5 -116.499s46.5 -30.5 82.5 -30.5l35 2v-176
c-20.667 -2.66699 -42.667 -4 -66 -4c-186 0 -279 97 -279 291z" />
    <glyph glyph-name="uniFB03" unicode="&#xfb03;" horiz-adv-x="1886" 
d="M899 0l0.00195312 876.994h-491v-877h-197v877h-129v159h129v35c0 65.333 9.5 122.333 28.5 171s42.167 86.334 69.5 113.001s60.166 47.834 98.499 63.501s72.166 25.834 101.499 30.501s59.666 7 90.999 7l76 -6v-170c-13.333 2.66699 -30.333 4 -51 4
c-23.333 0 -45.666 -2.33301 -66.999 -7s-44.166 -13.834 -68.499 -27.501s-44 -36.167 -59 -67.5s-22.5 -69.666 -22.5 -114.999v-31h491v35c0 65.333 9.5 122.333 28.5 171s42.167 86.334 69.5 113.001s60.166 47.834 98.499 63.501s72.166 25.834 101.499 30.501
s59.666 7 90.999 7l76 -6v-170c-13.333 2.66699 -30.333 4 -51 4c-23.333 0 -45.666 -2.33301 -66.999 -7s-44.166 -13.834 -68.499 -27.501s-44 -36.167 -59 -67.5s-22.5 -69.666 -22.5 -114.999v-31h635v-1036h-199v877h-436v-877h-197zM1530 1242.99v203h201v-203h-201z
" />
    <glyph glyph-name="uniFB04" unicode="&#xfb04;" horiz-adv-x="1918" 
d="M899 0l0.00195312 876.994h-491v-877h-197v877h-129v159h129v35c0 65.333 9.5 122.333 28.5 171s42.167 86.334 69.5 113.001s60.166 47.834 98.499 63.501s72.166 25.834 101.499 30.501s59.666 7 90.999 7l76 -6v-170c-13.333 2.66699 -30.333 4 -51 4
c-23.333 0 -45.666 -2.33301 -66.999 -7s-44.166 -13.834 -68.499 -27.501s-44 -36.167 -59 -67.5s-22.5 -69.666 -22.5 -114.999v-31h491v35c0 65.333 9.5 122.333 28.5 171s42.167 86.334 69.5 113.001s60.166 47.834 98.499 63.501s72.166 25.834 101.499 30.501
s59.666 7 90.999 7l76 -6v-170c-13.333 2.66699 -30.333 4 -51 4c-23.333 0 -45.666 -2.33301 -66.999 -7s-44.166 -13.834 -68.499 -27.501s-44 -36.167 -59 -67.5s-22.5 -69.666 -22.5 -114.999v-31h245v-159h-245v-877h-197zM1520 282.994l0.000976562 1163h198v-1129
c0 -57.333 9.66699 -96.166 29 -116.499s46.666 -30.5 81.999 -30.5l35 2v-176c-20.667 -2.66699 -42.667 -4 -66 -4c-185.333 0 -278 97 -278 291z" />
    <glyph glyph-name=".null" horiz-adv-x="0" 
 />
    <glyph glyph-name="nonmarkingreturn" horiz-adv-x="682" 
 />
    </font>
</defs>
</svg>
